<svg xmlns="http://www.w3.org/2000/svg" viewBox="0 0 170.08 170.08"><defs><style>.cls-1{fill:#fff;}.cls-2{fill:#487629;}.cls-3{fill:#1d1d1b;}.cls-4{fill:#f3c300;}.cls-5{fill:#fae345;}.cls-6{fill:#e1251b;}</style></defs><g id="Layer_2" data-name="Layer 2"><g id="Layer_1-2" data-name="Layer 1"><circle class="cls-1" cx="85.04" cy="85.04" r="83.75" transform="translate(-26.07 39.02) rotate(-22.5)"/><path class="cls-2" d="M148.9,130.55c-10.29,13.13-22.83,20.17-24,18.8-.55-.65,3.65-5.95,5.66-8.36,4.23-5.08,8.42-10.19,12.36-15.49,1.78-2.39,9.44-13.69,12-11.7C158,116.23,154.31,123.64,148.9,130.55Z"/><path class="cls-3" d="M125.41,150.12a1.2,1.2,0,0,1-1-.38c-.35-.41-1-1.17,5.64-9.13,4-4.85,8.34-10.08,12.35-15.47.19-.25.45-.61.76-1,4-5.54,8.05-10.73,10.69-11.1a1.78,1.78,0,0,1,1.38.34c4.53,3.55-3.37,14.36-5.9,17.59h0c-9.23,11.8-20.73,19.14-23.91,19.2Zm28.78-35.95h-.13c-2.49.36-7.86,7.81-9.88,10.62-.32.44-.58.8-.78,1.06-4,5.41-8.33,10.66-12.38,15.52-2.85,3.41-5.08,6.49-5.5,7.55,2.12-.12,13.23-6.4,22.91-18.75h0c6-7.67,8.45-14.06,6.1-15.9A.5.5,0,0,0,154.19,114.17Z"/><path class="cls-2" d="M142,127.56c-10.47,13-23.36,19.57-24.48,18.17-.54-.67,3.8-5.85,5.87-8.21,4.36-5,8.68-10,12.76-15.16C138,120,146,108.92,148.45,111,151.48,113.48,146.94,121.44,142,127.56Z"/><path class="cls-3" d="M118.1,146.52a1.26,1.26,0,0,1-1-.41c-.34-.42-1-1.19,5.89-9,4.16-4.74,8.59-9.86,12.74-15.14.2-.25.46-.6.79-1,4.13-5.44,8.32-10.52,11-10.82a1.8,1.8,0,0,1,1.37.37c4.39,3.63-4.51,15.16-6.34,17.43h0c-9.28,11.52-21.06,18.58-24.39,18.58Zm.07-1.19h0c2.15,0,13.53-5.92,23.38-18.15,4.92-6.11,9-13.64,6.52-15.74a.6.6,0,0,0-.47-.11c-2.5.29-8.06,7.61-10.16,10.36-.32.43-.6.79-.8,1-4.16,5.31-8.6,10.44-12.78,15.19C120.92,141.26,118.6,144.29,118.17,145.33Z"/><path class="cls-4" d="M162.34,101c-2,7.62-6.38,17.24-8.48,16.68s-1.15-11.08.86-18.7,4.32-9.44,6.43-8.89S164.36,93.37,162.34,101Z"/><path class="cls-3" d="M154.08,118.31a1.57,1.57,0,0,1-.37,0c-.49-.13-2-.53-1.56-7.32a66.14,66.14,0,0,1,2-12.12c1-3.68,2.05-6.21,3.29-7.74s2.47-2,3.87-1.58,2.28,1.48,2.58,3.29,0,4.67-.95,8.35h0a67.33,67.33,0,0,1-4.25,11.52C156.24,117.66,154.79,118.31,154.08,118.31Zm6.39-27.71a2.78,2.78,0,0,0-2.1,1.24c-1.12,1.38-2.15,3.83-3.07,7.29a66.11,66.11,0,0,0-2,11.88c-.3,4.74.4,6,.66,6.08s1.5-.68,3.59-5a66.75,66.75,0,0,0,4.16-11.3h0c.92-3.46,1.23-6.1.94-7.84-.23-1.32-.78-2.08-1.71-2.32A1.86,1.86,0,0,0,160.47,90.6Z"/><path class="cls-4" d="M163,76.8c.28,7.14-1,16.66-2.92,16.73s-3.95-9.3-4.23-16.45S157,67.74,159,67.66,162.67,69.66,163,76.8Z"/><path class="cls-3" d="M160,94.14c-2.89,0-4.59-11.26-4.81-17-.14-3.46.12-6,.8-7.61a3.2,3.2,0,0,1,6.15-.25c.8,1.61,1.26,4.07,1.4,7.53.23,5.8-.59,17.24-3.5,17.35Zm-.9-25.88H159c-.84,0-1.47.59-1.92,1.69a18.48,18.48,0,0,0-.71,7.11c.34,8.56,2.61,15.87,3.6,15.87h0c1,0,2.68-7.52,2.34-16.11a18.3,18.3,0,0,0-1.27-7C160.57,68.76,159.92,68.26,159.12,68.26Z"/><path class="cls-4" d="M157.18,53.37c2.58,6.67,4.49,16.06,2.65,16.78s-6.74-7.54-9.32-14.21-1.85-9.24,0-9.95S154.61,46.7,157.18,53.37Z"/><path class="cls-3" d="M159.63,70.78c-2.81,0-7.69-9.46-9.68-14.62-1.25-3.23-1.8-5.67-1.7-7.46.12-2.1,1.17-2.94,2-3.27a3.34,3.34,0,0,1,3.7,1c1.28,1.26,2.51,3.44,3.75,6.67a60.21,60.21,0,0,1,3,10.74c1.06,6.13-.28,6.65-.71,6.82A1.2,1.2,0,0,1,159.63,70.78Zm-8.27-24.35a1.77,1.77,0,0,0-.64.12c-.79.31-1.2,1-1.27,2.22a18.48,18.48,0,0,0,1.62,7c3.1,8,7.63,14.22,8.54,13.85.18-.07.71-1.2,0-5.49a59.77,59.77,0,0,0-2.95-10.51h0a18.71,18.71,0,0,0-3.47-6.24A2.62,2.62,0,0,0,151.36,46.43Z"/><path class="cls-4" d="M144.12,32.38c4.87,6.19,9.93,15.47,8.21,16.82s-9.54-5.76-14.4-12S133,28.11,134.7,26.76,139.25,26.18,144.12,32.38Z"/><path class="cls-3" d="M151.83,50c-3.26,0-10.81-7.79-14.38-12.33-2.35-3-3.72-5.38-4.19-7.29s-.08-3.14,1.07-4,2.55-.93,4.17-.08,3.75,2.8,6.1,5.79a66.09,66.09,0,0,1,6.63,10.33c3.09,6.08,1.87,7,1.48,7.34A1.38,1.38,0,0,1,151.83,50ZM136.32,26.8a2,2,0,0,0-1.25.44,2.49,2.49,0,0,0-.64,2.8c.42,1.72,1.76,4,4,6.84,6,7.61,12.66,12.54,13.56,11.85.22-.17.35-1.61-1.8-5.85a65.79,65.79,0,0,0-6.51-10.13c-2.21-2.82-4.13-4.66-5.7-5.47A3.58,3.58,0,0,0,136.32,26.8Z"/><path class="cls-4" d="M154.22,101c-2,7.62-6.38,17.24-8.48,16.68s-1.15-11.08.86-18.7,4.32-9.44,6.43-8.89S156.24,93.37,154.22,101Z"/><path class="cls-3" d="M146,118.31a1.57,1.57,0,0,1-.37,0c-3.07-.81-1.2-13.27.43-19.44,1-3.68,2-6.21,3.29-7.74s2.47-2,3.87-1.58,2.28,1.48,2.58,3.29,0,4.67-.95,8.35a67.33,67.33,0,0,1-4.25,11.52C148.11,117.66,146.67,118.31,146,118.31Zm6.38-27.71a2.78,2.78,0,0,0-2.09,1.24c-1.12,1.38-2.15,3.83-3.07,7.29-2.47,9.36-2.38,17.67-1.29,18,.27.08,1.5-.68,3.59-5a66.75,66.75,0,0,0,4.16-11.3h0c.92-3.46,1.23-6.1.94-7.84-.23-1.32-.78-2.08-1.71-2.32A1.93,1.93,0,0,0,152.34,90.6Z"/><path class="cls-4" d="M154.84,76.8c.28,7.14-1,16.66-2.92,16.73s-3.95-9.3-4.23-16.45,1.23-9.34,3.21-9.42S154.55,69.66,154.84,76.8Z"/><path class="cls-3" d="M151.9,94.14c-2.89,0-4.59-11.26-4.81-17-.14-3.46.12-6,.8-7.61a3.34,3.34,0,0,1,3-2.44c2.84-.11,4.3,3.07,4.57,9.72h0c.23,5.8-.59,17.24-3.5,17.35ZM151,68.26h-.07c-.84,0-1.47.59-1.92,1.69a18.48,18.48,0,0,0-.71,7.11c.34,8.56,2.61,15.87,3.59,15.87h0c1,0,2.68-7.52,2.34-16.11h0C154.08,72.91,153.39,68.26,151,68.26Z"/><path class="cls-4" d="M149.06,53.37c2.58,6.67,4.49,16.06,2.65,16.78s-6.74-7.54-9.32-14.21-1.85-9.24,0-9.95S146.49,46.7,149.06,53.37Z"/><path class="cls-3" d="M151.51,70.78c-2.81,0-7.69-9.46-9.68-14.62-1.25-3.23-1.8-5.67-1.7-7.46.12-2.1,1.17-2.94,2-3.27a3.35,3.35,0,0,1,3.71,1c1.28,1.26,2.51,3.44,3.75,6.67h0c2.1,5.42,5,16.51,2.3,17.56A1.1,1.1,0,0,1,151.51,70.78Zm-8.27-24.35a1.77,1.77,0,0,0-.64.12c-.79.31-1.2,1-1.27,2.22a18.48,18.48,0,0,0,1.62,7c3.1,8,7.62,14.21,8.54,13.85s.11-8-3-16A18.71,18.71,0,0,0,145,47.34,2.62,2.62,0,0,0,143.24,46.43Z"/><path class="cls-4" d="M136,32.38c4.87,6.19,9.92,15.47,8.21,16.82s-9.54-5.76-14.41-12-4.93-9.14-3.22-10.49S131.13,26.18,136,32.38Z"/><path class="cls-3" d="M143.71,50c-3.26,0-10.81-7.79-14.38-12.33-4.5-5.73-5.53-9.44-3.12-11.33,1.14-.9,2.55-.93,4.17-.08s3.74,2.8,6.1,5.79c3.94,5,10.6,15.71,8.1,17.67A1.34,1.34,0,0,1,143.71,50ZM128.2,26.8a2,2,0,0,0-1.25.44c-2.17,1.7.61,6.18,3.33,9.64,6,7.61,12.66,12.55,13.56,11.85s-2.32-8.37-8.31-16h0c-2.21-2.82-4.13-4.66-5.7-5.47A3.58,3.58,0,0,0,128.2,26.8Z"/><path class="cls-4" d="M136.14,122.93c-4.71,6.31-12.35,13.62-14.08,12.33s3.09-10.7,7.8-17,7.53-7.16,9.26-5.87S140.85,116.61,136.14,122.93Z"/><path class="cls-3" d="M122.53,136a1.36,1.36,0,0,1-.83-.25c-.4-.3-1.63-1.22,1.3-7.36a67.3,67.3,0,0,1,6.38-10.49c4.36-5.85,7.66-7.81,10.1-6,1.16.86,1.55,2.21,1.15,4s-1.73,4.34-4,7.39C133.15,127.94,125.74,136,122.53,136Zm15.06-23.51c-2.17,0-5,3.18-7.24,6.13a66.28,66.28,0,0,0-6.26,10.29c-2,4.28-1.89,5.71-1.67,5.87.9.68,7.44-4.44,13.24-12.2,2.14-2.87,3.42-5.21,3.8-6.93a2.49,2.49,0,0,0-.7-2.78A2,2,0,0,0,137.59,112.48Z"/><path class="cls-4" d="M145.88,101.25c-2,7.62-6.38,17.24-8.49,16.68s-1.15-11.08.87-18.7,4.32-9.44,6.42-8.89S147.89,93.63,145.88,101.25Z"/><path class="cls-3" d="M137.61,118.57a1.57,1.57,0,0,1-.37,0c-.49-.13-2-.53-1.56-7.33a66.9,66.9,0,0,1,2-12.11c1-3.68,2.05-6.21,3.3-7.74s2.46-2,3.87-1.58,2.27,1.48,2.58,3.29,0,4.67-1,8.35h0a65.69,65.69,0,0,1-4.25,11.52C139.77,117.92,138.33,118.57,137.61,118.57ZM144,90.85a2.8,2.8,0,0,0-2.1,1.25c-1.12,1.37-2.15,3.82-3.06,7.29a67,67,0,0,0-2,11.88c-.29,4.74.4,6,.67,6.08s1.49-.68,3.58-5a65.92,65.92,0,0,0,4.17-11.3h0c.91-3.46,1.23-6.1.93-7.84-.22-1.32-.78-2.08-1.7-2.32A2,2,0,0,0,144,90.85Z"/><path class="cls-4" d="M146.49,77.06c.28,7.14-1,16.65-2.92,16.73s-3.95-9.3-4.23-16.45,1.24-9.34,3.21-9.42S146.21,69.91,146.49,77.06Z"/><path class="cls-3" d="M143.55,94.39c-2.89,0-4.58-11.25-4.81-17-.26-6.64,1-9.93,3.79-10a3.33,3.33,0,0,1,3.16,2.19c.81,1.61,1.27,4.07,1.4,7.53a60.77,60.77,0,0,1-.62,11.13c-1,6.15-2.4,6.2-2.88,6.22Zm-.9-25.87h-.08c-2.45.1-2.78,4.84-2.63,8.8.34,8.59,2.61,15.88,3.61,15.87.19,0,1-.91,1.73-5.21a60,60,0,0,0,.61-10.9,18.65,18.65,0,0,0-1.27-7C144.1,69,143.46,68.52,142.65,68.52Z"/><path class="cls-4" d="M140.72,53.63c2.57,6.67,4.49,16.06,2.64,16.77s-6.74-7.53-9.32-14.2-1.85-9.24,0-10S138.14,47,140.72,53.63Z"/><path class="cls-3" d="M143.11,71.06c-.7,0-2.08-.63-4.64-4.67a61.06,61.06,0,0,1-5-10c-1.24-3.23-1.8-5.67-1.7-7.46a3.34,3.34,0,0,1,2-3.27c2.63-1,5.06,1.51,7.46,7.72h0a60.17,60.17,0,0,1,3,10.74c1.07,6.13-.27,6.65-.71,6.82A1.43,1.43,0,0,1,143.11,71.06Zm-8.23-24.37a1.76,1.76,0,0,0-.63.12A2.24,2.24,0,0,0,133,49c-.09,1.59.46,3.93,1.63,7a59.28,59.28,0,0,0,4.88,9.76c2.32,3.67,3.48,4.17,3.66,4.09s.7-1.2-.05-5.49a60.35,60.35,0,0,0-2.94-10.51h0C138.86,50.48,136.94,46.69,134.88,46.69Z"/><path class="cls-4" d="M127.66,32.63c4.87,6.2,9.92,15.48,8.21,16.83s-9.54-5.76-14.41-12-4.94-9.14-3.23-10.49S122.79,26.44,127.66,32.63Z"/><path class="cls-3" d="M135.36,50.24c-.89,0-2.58-.63-5.9-3.47A66.4,66.4,0,0,1,121,37.88c-4.51-5.73-5.53-9.44-3.13-11.33s5.77,0,10.27,5.71h0a66.89,66.89,0,0,1,6.64,10.33c3.08,6.08,1.87,7,1.47,7.34A1.29,1.29,0,0,1,135.36,50.24ZM119.84,27.07a1.93,1.93,0,0,0-1.24.43c-2.16,1.7.62,6.18,3.33,9.63a65.75,65.75,0,0,0,8.31,8.72c3.61,3.09,5,3.31,5.26,3.14s.35-1.61-1.8-5.85A66.55,66.55,0,0,0,127.19,33C124.94,30.14,122,27.07,119.84,27.07Z"/><path class="cls-2" d="M85.8,150.43S97,152.16,106.53,146l-2.11-1.23s7.28-.57,12.47-4.87L115,139a11.81,11.81,0,0,0,5.72-4.68l-1.35-.42s3.29-2.4,3.29-9.34a23.25,23.25,0,0,0-10.18,2.69L113,126s-6.77,1.54-10.87,4.7l.2-1.87A34,34,0,0,0,90.43,135c-5.77,4.68-7.54,8.5-7.54,8.5S80.47,148.07,85.8,150.43Z"/><path class="cls-3" d="M123.25,124l-.59,0a23.32,23.32,0,0,0-9,2.07l.37-.91-1.13.26a36,36,0,0,0-10,4l.14-1.39-.83.2a34.12,34.12,0,0,0-12.11,6.3c-5.81,4.71-7.63,8.55-7.69,8.68a5.86,5.86,0,0,0-.35,4.28A6.05,6.05,0,0,0,85.56,151l.15.05a28.68,28.68,0,0,0,3.9.24,32.15,32.15,0,0,0,17.25-4.77l.82-.53-1.44-.84a24.65,24.65,0,0,0,11-4.76l.74-.62-1.57-.71a12.52,12.52,0,0,0,4.76-4.35l.42-.67-1.14-.36c1-1.21,2.76-4,2.76-9Zm-3.51,10.67a11.22,11.22,0,0,1-4.95,3.77l-1.48.48,2.43,1.1a25.41,25.41,0,0,1-11.36,4.13l-1.92.15,2.9,1.69c-8.63,5.11-18.42,4-19.39,3.84a4.86,4.86,0,0,1-2.82-2.71,4.7,4.7,0,0,1,.29-3.36s1.8-3.77,7.37-8.29a34.45,34.45,0,0,1,10.8-5.82l-.24,2.37,1.11-.86c3-2.27,7.41-3.7,9.49-4.29l-.69,1.69,1.46-.76a23.83,23.83,0,0,1,8.46-2.53,53.26,53.26,0,0,1-9.51,7.93c.12-.31.25-.62.4-.93a19.64,19.64,0,0,1,1-1.85.17.17,0,0,0,0-.23.19.19,0,0,0-.26,0,18.87,18.87,0,0,0-1.4,1.66c-.22.29-.43.6-.63.91a7.37,7.37,0,0,0-.55,1h0l-.19.46a70,70,0,0,1-6.15,3.4c.32-.65.65-1.3,1-1.93.55-1,1.15-1.92,1.8-2.84a.23.23,0,0,0-.36-.29c-.76.86-1.48,1.75-2.15,2.68a30.76,30.76,0,0,0-1.87,2.91h0l-.16.29a81.68,81.68,0,0,1-17.4,5.83l.21,1.19a83.88,83.88,0,0,0,18.42-6.26l.72.15c.49.09,1,.16,1.46.21,1,.11,2,.17,2.92.2a.21.21,0,0,0,0-.41c-1-.16-1.89-.34-2.81-.58l-.91-.26a72.64,72.64,0,0,0,6.6-3.73l.29.09c.39.1.79.17,1.18.23a14.42,14.42,0,0,0,2.36.12.26.26,0,0,0,.25-.23.25.25,0,0,0-.23-.28,13.41,13.41,0,0,1-2.2-.45l-.55-.2a54.24,54.24,0,0,0,9.45-7.88c-.44,5.27-2.94,7.2-3,7.22l-1,.7Z"/><path class="cls-2" d="M59.45,158.47s-10.63.41-18.6-6.81l2.12-1s-6.67-1.41-10.87-6.27l1.9-.64a10.8,10.8,0,0,1-4.64-5.3l1.64-.33s-2.82-2.39-1.46-9.82a41.29,41.29,0,0,1,8.37,4.9l-.19-2.13s6.07,2.32,9.42,5.93l.09-1.87a30.25,30.25,0,0,1,10.14,7.51c4.68,5.31,5.77,9.3,5.77,9.3A5.07,5.07,0,0,1,59.45,158.47Z"/><path class="cls-3" d="M63.72,151.81c0-.17-1.18-4.2-5.9-9.55a30.45,30.45,0,0,0-10.37-7.67l-.79-.32-.06,1.38a31.86,31.86,0,0,0-8.66-5.12l-.9-.35L37.2,132a41.24,41.24,0,0,0-7.43-4.2l-.69-.27-.13.72c-1,5.36.15,8.24,1,9.54l-1.4.28.29.68a11.68,11.68,0,0,0,3.81,4.89l-1.56.52.58.68a21.74,21.74,0,0,0,9.58,6l-1.46.67.68.61c7.27,6.59,16.53,7,18.62,7h.41l.16,0a5.62,5.62,0,0,0,4.09-7.23Zm-1.4,3.74a4.88,4.88,0,0,1-3,2.32c-1,0-10.15,0-17.39-6.05l2.94-1.35-1.79-.37a22.2,22.2,0,0,1-9.93-5.41l2.4-.81-1.3-.65a10.12,10.12,0,0,1-4-4.32l2.07-.42-.91-.8s-2.14-2-1.48-7.73a52.71,52.71,0,0,0,7.37,8.8l-.11,0-1,.23c-.68.14-1.37.23-2.09.35h0a.27.27,0,0,0-.21.19.26.26,0,0,0,.18.32,5.93,5.93,0,0,0,1.11.24,8.62,8.62,0,0,0,1.14.08,9,9,0,0,0,1.15-.11,4.35,4.35,0,0,0,1-.28,69.65,69.65,0,0,0,9.29,7.1c-.43.09-.86.17-1.31.23-.88.13-1.79.2-2.69.25a.21.21,0,0,0-.19.19.2.2,0,0,0,.18.22c.91.08,1.83.14,2.76.14a13.17,13.17,0,0,0,1.4,0,7.33,7.33,0,0,0,1.18-.15,71.37,71.37,0,0,0,11.87,5.92l.4-1.14a69.86,69.86,0,0,1-11.73-5.86,29.59,29.59,0,0,0-1.22-2.82,31.91,31.91,0,0,0-1.62-2.92.24.24,0,0,0-.3-.09.23.23,0,0,0-.1.31,30.65,30.65,0,0,1,1.25,3c.19.51.37,1,.53,1.57a59.62,59.62,0,0,1-16.92-16,44.45,44.45,0,0,1,6.36,3.94l1.08.8L38.41,132c1.79.79,5.83,2.75,8.29,5.39l1,1.05.12-2.4a30.38,30.38,0,0,1,9.12,7c4.52,5.12,5.64,9,5.66,9.09A5,5,0,0,1,62.32,155.55Z"/><path class="cls-2" d="M66.73,153.39s-10.6.28-18.62-6.74l2.11-.91s-6.67-1.43-10.91-6.15L41.2,139a10.94,10.94,0,0,1-4.69-5.14l1.63-.3s-2.84-2.34-1.56-9.46a43.15,43.15,0,0,1,8.4,4.8l.34-3.21a56.75,56.75,0,0,1,8.9,7l.07-1.8a31.2,31.2,0,0,1,10.19,7.33c4.72,5.15,5.85,9,5.85,9S72,151.8,66.73,153.39Z"/><path class="cls-3" d="M70.91,147c0-.16-1.22-4-6-9.24a31.57,31.57,0,0,0-10.41-7.48l-.79-.31,0,1.28a60.94,60.94,0,0,0-8-6.08l-.82-.51-.33,3.15a42.07,42.07,0,0,0-7.69-4.28l-.68-.26L36,124c-.91,5.09.21,7.87,1,9.15l-1.38.25.31.7a11.82,11.82,0,0,0,3.81,4.71l-1.54.49.63.69a22.38,22.38,0,0,0,9.56,5.87l-1.43.61.72.63c7.53,6.6,17.11,6.9,18.79,6.9h.24l.16,0a5.83,5.83,0,0,0,3.75-2.84A5.73,5.73,0,0,0,70.91,147Zm-1.34,3.59a4.65,4.65,0,0,1-2.94,2.19c-.93,0-10.1-.12-17.39-6l2.94-1.27-1.84-.39a23.07,23.07,0,0,1-9.93-5.28l2.41-.75-1.36-.66a10.49,10.49,0,0,1-4.06-4.16l2.09-.39-1-.82s-2.14-1.92-1.57-7.36a55.17,55.17,0,0,0,10.28,11l-.88.14c-.68.1-1.36.18-2.08.33a.25.25,0,0,0-.2.16.26.26,0,0,0,.15.35,5.82,5.82,0,0,0,2.23.34,5,5,0,0,0,1.14-.15,4.26,4.26,0,0,0,.76-.26,73.34,73.34,0,0,0,6.47,4.54c-.41.08-.82.15-1.24.2-.88.12-1.78.18-2.68.22a.2.2,0,0,0-.19.19.2.2,0,0,0,.18.22c.9.09,1.81.16,2.73.18.47,0,.93,0,1.4,0a8.9,8.9,0,0,0,1.19-.14,73.18,73.18,0,0,0,11.9,5.82l.39-1.14a70.92,70.92,0,0,1-11.76-5.75,28.16,28.16,0,0,0-1.25-2.73c-.5-1-1-1.9-1.64-2.81a.23.23,0,0,0-.3-.08.22.22,0,0,0-.1.31c.47,1,.9,1.93,1.28,2.92.19.49.36,1,.52,1.47a60.57,60.57,0,0,1-16.95-15.46,47,47,0,0,1,6.32,3.83l.84.6.35-3.26a52.57,52.57,0,0,1,8,6.34l1,1,.09-2.31A31.43,31.43,0,0,1,64,138.59c4.55,5,5.71,8.73,5.73,8.79A4.64,4.64,0,0,1,69.57,150.6Z"/><path class="cls-2" d="M73.28,141.7s-9.37,1.26-17.1-4.34l1.8-1s-6-.66-10.21-4.52l1.62-.72-.45-.42c-3.46-3.17-6-5.95-5.67-10.62,0-.07,0-.13,0-.2a13.55,13.55,0,0,1,8.6,1.75l-.37-1.83s5.59,1.5,8.89,4.35l-.1-1.63A27.32,27.32,0,0,1,70,128.15c4.63,4.22,6,7.59,6,7.59S77.81,139.76,73.28,141.7Z"/><path class="cls-3" d="M76.51,135.52c-.06-.14-1.44-3.55-6.13-7.81a27.68,27.68,0,0,0-9.91-5.8l-.82-.23.07,1.15a28.9,28.9,0,0,0-8-3.64l-.93-.25.3,1.54a13.9,13.9,0,0,0-7.87-1.22l-.45.1,0,.64c-.37,4.86,2.31,7.84,5.64,10.91l-1.62.71.67.63a19.64,19.64,0,0,0,8.87,4.39l-1.16.66.76.54a25.85,25.85,0,0,0,15,4.59,22.34,22.34,0,0,0,2.51-.13l.16,0a4.93,4.93,0,0,0,3-6.74Zm-1,3.38a4.19,4.19,0,0,1-2.38,2.22c-.88.09-8.9.82-15.81-3.71l2.58-1.47-1.85-.2A20.13,20.13,0,0,1,48.88,132l1.6-.7-1.14-1c-2.93-2.69-5.23-5.1-5.47-8.72a41.64,41.64,0,0,0,9.78,8.25L53,130c-.58.18-1.18.31-1.81.52h0a.24.24,0,0,0-.17.18.27.27,0,0,0,.18.33,4.33,4.33,0,0,0,1,.15,5.8,5.8,0,0,0,1,0,6,6,0,0,0,1-.21,4.28,4.28,0,0,0,.72-.34,59.93,59.93,0,0,0,19.19,6.95l.16-1.2c-.19,0-18.87-2.78-29.86-16a13.17,13.17,0,0,1,7.1,1.77l1.16.68-.43-2.16A24.35,24.35,0,0,1,60,124.58l1.07.92L61,123.35a27.38,27.38,0,0,1,8.61,5.25c4.46,4.05,5.81,7.33,5.83,7.4A4.15,4.15,0,0,1,75.5,138.9Z"/><path class="cls-2" d="M89.78,153.14s-10.74,3.58-21.18-.9l1.87-1.57s-7.27.66-13.1-2.7l1.74-1.18a11.77,11.77,0,0,1-6.43-3.65l1.57-.81s-3.64-1.43-4.6-8.9a47.18,47.18,0,0,1,10.11,2.15l-.87-2s6.94.39,11.51,2.81l.67-1.12s5.1-.22,11.57,3.42,8.85,7.12,8.85,7.12S94.65,149.91,89.78,153.14Z"/><path class="cls-3" d="M80.18,155.11a30,30,0,0,1-11.81-2.32l-.9-.39,1.28-1.07a24.39,24.39,0,0,1-11.68-2.84l-.84-.48,1.43-1a12.58,12.58,0,0,1-5.42-3.49l-.53-.58,1.34-.69c-1.25-1-3.31-3.4-4-8.77l-.09-.73.73.05a45.67,45.67,0,0,1,9,1.79L58,133l1,0c.27,0,6.64.4,11.24,2.62l.55-.92h.33c.22,0,5.34-.19,11.88,3.5s9,7.15,9.06,7.3a5.82,5.82,0,0,1,1,4.13,6,6,0,0,1-2.92,4l-.14.07A33.57,33.57,0,0,1,80.18,155.11Zm-10.42-3.06c9.36,3.59,18.83.83,19.76.54a4.93,4.93,0,0,0,2.33-3.15,4.53,4.53,0,0,0-.84-3.23c0-.06-2.42-3.44-8.67-7a24.33,24.33,0,0,0-10.93-3.35l-.79,1.32-.51-.26c-3.39-1.8-8.2-2.46-10.26-2.66l1,2.26-1.28-.41a49,49,0,0,0-9.21-2c1,6.31,4.09,7.65,4.12,7.67l1.2.5-2,1a11.15,11.15,0,0,0,5.51,2.88l1.55.22-2.21,1.5a25.14,25.14,0,0,0,11.89,2.16l1.92-.17Z"/><path class="cls-3" d="M89.75,148.14c-.23,0-24-.84-40.48-14.24L50,133c16.21,13.15,39.52,14,39.76,14Z"/><path class="cls-3" d="M71.21,140.27a34.21,34.21,0,0,1,2.56,2.28,31.62,31.62,0,0,1,2.33,2.55h0l.39.5-.5.31a8,8,0,0,1-1.45.67q-.71.25-1.41.45c-.94.27-1.89.49-2.84.69a.21.21,0,0,1-.24-.16.22.22,0,0,1,.13-.24c.91-.32,1.81-.66,2.68-1.05.43-.19.86-.39,1.27-.61a7.17,7.17,0,0,0,1.11-.69l-.12.82h0a31.21,31.21,0,0,0-2-2.68,33.25,33.25,0,0,0-2.25-2.49.23.23,0,0,1,0-.33A.24.24,0,0,1,71.21,140.27Z"/><path class="cls-3" d="M62.64,138a16.67,16.67,0,0,1,2.06,2,20.71,20.71,0,0,1,1.78,2.25h0l.3.46-.44.3a6.84,6.84,0,0,1-1.12.6,11.91,11.91,0,0,1-1.13.43,13.35,13.35,0,0,1-2.3.51.25.25,0,0,1-.29-.22.26.26,0,0,1,.18-.28,12.67,12.67,0,0,0,2.1-.81c.33-.17.65-.34,1-.54a5.78,5.78,0,0,0,.83-.62l-.14.76h0a20.72,20.72,0,0,0-1.35-2.36,16.86,16.86,0,0,0-1.68-2.18.19.19,0,0,1,0-.26A.2.2,0,0,1,62.64,138Z"/><path class="cls-2" d="M82.39,160s-10.5,4.46-21.21.09L63,158.24S55.73,159.33,49.7,156l1.66-1.38a11.56,11.56,0,0,1-6.64-3.66l1.52-1s-3.73-1.38-5.16-9.5a43.2,43.2,0,0,1,10.23,1.84l-1-2.12s7,.08,11.67,2.5l-.62-1.95a31.88,31.88,0,0,1,13,3.84c6.69,3.66,9.29,7.34,9.29,7.34A5.61,5.61,0,0,1,82.39,160Z"/><path class="cls-3" d="M84.14,151.54c-.11-.15-2.75-3.83-9.49-7.52a32.34,32.34,0,0,0-13.26-3.91l-.85,0,.47,1.47a33.62,33.62,0,0,0-10.68-2h-1l.84,1.79a41.73,41.73,0,0,0-9.11-1.5l-.74,0,.13.72c1,6,3.32,8.45,4.6,9.41l-1.31.83.49.53A12.62,12.62,0,0,0,50,154.9L48.63,156l.77.43a23,23,0,0,0,12,2.52l-1.25,1.28.83.33a27.25,27.25,0,0,0,10.39,2,31,31,0,0,0,11.28-2.08l.14-.08A6.25,6.25,0,0,0,84.14,151.54Zm-2.06,7.89c-.93.37-10.25,3.88-19.83.39l2.39-2.44-1.78.27a23.24,23.24,0,0,1-12.08-1.81l2.07-1.72L51.42,154A10.87,10.87,0,0,1,45.67,151l1.88-1.2-1.1-.44s-3-1.25-4.45-7.49a58.57,58.57,0,0,0,14.81,7.88l-.08.07q-.45.33-.93.63a13.21,13.21,0,0,1-2,1,.26.26,0,0,0,.14.49,12.62,12.62,0,0,0,2.29-.71,10.07,10.07,0,0,0,1.1-.53,8.9,8.9,0,0,0,.76-.49,75.72,75.72,0,0,0,8.35,2.35l-.1.07c-.4.26-.81.5-1.24.73-.84.46-1.72.87-2.61,1.26a.21.21,0,0,0-.11.25.2.2,0,0,0,.25.14c.94-.27,1.88-.57,2.81-.92.46-.17.93-.37,1.38-.58a8.58,8.58,0,0,0,1.14-.62,75.34,75.34,0,0,0,13.94,1.55h.19l0-1.2a72.62,72.62,0,0,1-14-1.55,33.32,33.32,0,0,0-2.29-2.45c-.86-.84-1.77-1.64-2.71-2.39a.23.23,0,0,0-.32,0,.25.25,0,0,0,0,.33,35,35,0,0,1,2.41,2.61c.41.49.81,1,1.2,1.52A74.51,74.51,0,0,1,58.27,149c-.19-.25-.37-.47-.57-.69s-.54-.57-.82-.84A22.37,22.37,0,0,0,55.11,146a.18.18,0,0,0-.23,0,.18.18,0,0,0,0,.26A20.89,20.89,0,0,1,56.29,148l.25.38a56.86,56.86,0,0,1-13.45-7.19,48.83,48.83,0,0,1,8,1.65l1.28.38-1.13-2.42c2.05.12,6.92.58,10.42,2.38l1.29.66-.78-2.47a32.17,32.17,0,0,1,11.85,3.7c6.47,3.54,9.06,7.12,9.1,7.18A5,5,0,0,1,82.08,159.43Z"/><path class="cls-2" d="M87.69,160s10.5,4.46,21.2.09l-1.76-1.81s7.22,1.09,13.25-2.29l-1.66-1.38a11.56,11.56,0,0,0,6.64-3.66l-1.52-1s3.73-1.38,5.16-9.5a37.06,37.06,0,0,0-9.79,1.71l1.94-2.28s-8.35.37-13.06,2.79l.62-1.95a31.88,31.88,0,0,0-13,3.84c-6.69,3.66-9.29,7.34-9.29,7.34A5.61,5.61,0,0,0,87.69,160Z"/><path class="cls-3" d="M129.59,140.54l.12-.7H129a34.86,34.86,0,0,0-8.07,1.21l1.57-1.85-1.38.07c-.32,0-7.22.34-12.05,2.28l.46-1.47-.84,0A32.3,32.3,0,0,0,95.43,144c-6.74,3.69-9.38,7.37-9.47,7.5a6.24,6.24,0,0,0,1.35,8.91l.14.08a31,31,0,0,0,11.28,2.08,27.25,27.25,0,0,0,10.39-2l.83-.33L108.7,159a23,23,0,0,0,12-2.52l.76-.43-1.38-1.14a12.55,12.55,0,0,0,5.74-3.59l.5-.53L125,150C126.27,149,128.55,146.49,129.59,140.54Zm-6,8.84-1.14.42,1.91,1.22a10.88,10.88,0,0,1-5.76,2.95l-1.42.16,2.07,1.7a23.18,23.18,0,0,1-12.08,1.82l-1.78-.27,2.39,2.44c-9.58,3.49-18.9,0-19.83-.39a5,5,0,0,1-1.07-7.19s2.61-3.62,9.08-7.16a32.17,32.17,0,0,1,11.85-3.7l-.78,2.47,1.28-.66c3.4-1.74,8.85-2.4,11.4-2.62l-2.31,2.73,1.94-.58a42.44,42.44,0,0,1,7.65-1.55,57.3,57.3,0,0,1-13.5,7.22l.25-.38a20.89,20.89,0,0,1,1.42-1.72.18.18,0,0,0,0-.24.18.18,0,0,0-.25,0,20.7,20.7,0,0,0-1.77,1.48c-.28.27-.55.55-.82.84s-.38.44-.57.69a72.18,72.18,0,0,1-8.08,2.3c.39-.51.79-1,1.2-1.51a35,35,0,0,1,2.41-2.61.26.26,0,0,0,0-.32.24.24,0,0,0-.33,0c-.94.75-1.85,1.55-2.71,2.39a33.32,33.32,0,0,0-2.29,2.45,72.82,72.82,0,0,1-14,1.55l0,1.2h.19a75.34,75.34,0,0,0,13.94-1.55,8.58,8.58,0,0,0,1.14.62c.45.21.91.41,1.38.58.93.35,1.87.65,2.81.92a.21.21,0,0,0,.14-.39c-.89-.39-1.77-.8-2.62-1.26-.42-.23-.83-.47-1.23-.73l-.1-.07a75,75,0,0,0,8.34-2.35c.26.18.51.34.77.49a10.07,10.07,0,0,0,1.1.53,12.62,12.62,0,0,0,2.29.71.25.25,0,0,0,.14-.49,13.78,13.78,0,0,1-2-1c-.32-.2-.63-.41-.92-.63l-.08-.07a58.57,58.57,0,0,0,14.81-7.88C126.59,148.13,123.66,149.37,123.64,149.38Z"/><path class="cls-3" d="M85,34.18A50.86,50.86,0,1,0,135.9,85,50.91,50.91,0,0,0,85,34.18Z"/><circle class="cls-4" cx="85.04" cy="85.04" r="32.85"/><path class="cls-3" d="M85,170.08a85,85,0,1,1,85-85A85.14,85.14,0,0,1,85,170.08ZM85,1.29A83.75,83.75,0,1,0,168.78,85,83.84,83.84,0,0,0,85,1.29Z"/><ellipse class="cls-1" cx="91.73" cy="12.71" rx="7.58" ry="8.05" transform="translate(54.53 97.51) rotate(-74.2)"/><path class="cls-3" d="M92,20.92a9.26,9.26,0,0,1-2.48-.34,8.85,8.85,0,0,1-5.22-4A7.87,7.87,0,0,1,87.44,5.47,9,9,0,0,1,99.18,8.79a7.89,7.89,0,0,1,.87,6.27A8.26,8.26,0,0,1,92,20.92ZM91.47,5.69A7.54,7.54,0,0,0,88,6.53,6.67,6.67,0,0,0,85.31,16a7.66,7.66,0,0,0,4.52,3.41,7.23,7.23,0,0,0,9.07-4.69,6.72,6.72,0,0,0-.75-5.32A7.67,7.67,0,0,0,93.63,6,8,8,0,0,0,91.47,5.69Z"/><ellipse class="cls-1" cx="78.35" cy="12.71" rx="8.05" ry="7.58" transform="translate(-0.5 21.81) rotate(-15.8)"/><path class="cls-3" d="M78.1,20.93A8.26,8.26,0,0,1,70,15.06h0a8.66,8.66,0,0,1,16.64-4.71,8.43,8.43,0,0,1-6.09,10.23A9.28,9.28,0,0,1,78.1,20.93Zm-6.92-6.2a7.23,7.23,0,0,0,9.07,4.69,7.24,7.24,0,0,0,5.27-8.74,7.47,7.47,0,0,0-14.34,4.05Z"/><circle class="cls-1" cx="85.04" cy="15.99" r="7.54"/><path class="cls-3" d="M85,24.13A8.15,8.15,0,1,1,93.18,16,8.15,8.15,0,0,1,85,24.13ZM85,9.05A6.94,6.94,0,1,0,92,16,6.94,6.94,0,0,0,85,9.05Z"/><path class="cls-2" d="M88.42,20.4s11.92-18.08,32.6-2C121,18.39,103.36,26.29,88.42,20.4Z"/><path class="cls-3" d="M100.72,23.17A34,34,0,0,1,88.2,21l-.28-.89a21.55,21.55,0,0,1,13.53-8.69c6.32-1,13,1.16,19.94,6.54l-.12,1A56.75,56.75,0,0,1,100.72,23.17ZM89.38,20.12c12.42,4.49,26.66-.41,30.44-1.88-6.34-4.7-12.45-6.61-18.16-5.67C95,13.66,90.72,18.41,89.38,20.12Z"/><path class="cls-2" d="M90.54,26.77A14.77,14.77,0,0,0,102,35.45c8.89,1.58,16,0,21.07,3.82C123,39.27,114.86,19.86,90.54,26.77Z"/><path class="cls-3" d="M124.46,41.11l-1.79-1.37c-3.11-2.36-7.19-2.58-11.91-2.83a70.73,70.73,0,0,1-8.9-.87C92.73,34.43,90.08,27.28,90,27l-.21-.61.62-.18c12.8-3.63,21.15,0,25.9,3.76A25.42,25.42,0,0,1,123.59,39ZM91.37,27.17a14.27,14.27,0,0,0,10.7,7.69,71.08,71.08,0,0,0,8.75.85c4,.21,7.63.4,10.67,1.9C118.77,33,110.13,22.15,91.37,27.17Z"/><path class="cls-2" d="M90.54,26.77a35.09,35.09,0,0,1,10.35-7.18c9.75-4.46,24.21-10.79,41.46,10.66,0,0-3.39-3.82-13.82-3.22a90,90,0,0,1-16.21,0C104.66,26.34,99.3,24.24,90.54,26.77Z"/><path class="cls-3" d="M141.9,30.65s-3.4-3.59-13.33-3l-1.45.09a84.94,84.94,0,0,1-14.85-.08c-2-.18-3.76-.45-5.51-.71-5.17-.77-9.64-1.43-16.05.42l-.61-1A35.15,35.15,0,0,1,100.64,19c9.15-4.18,24.47-11.18,42.18,10.84Zm-11.17-4.28a23.49,23.49,0,0,1,8.76,1.45C123.44,10,110.11,16,101.14,20.13a36,36,0,0,0-8.51,5.5c5.53-1.19,9.81-.56,14.31.11,1.73.26,3.51.52,5.44.7a82.91,82.91,0,0,0,14.67.08l1.45-.09C129.28,26.39,130,26.37,130.73,26.37Z"/><path class="cls-2" d="M81.44,20.4s-11.92-18.08-32.6-2C48.84,18.39,66.49,26.29,81.44,20.4Z"/><path class="cls-3" d="M69.13,23.17a56.73,56.73,0,0,1-20.54-4.23l-.12-1c6.92-5.38,13.63-7.58,19.94-6.54a21.55,21.55,0,0,1,13.53,8.69l-.28.89A34.08,34.08,0,0,1,69.13,23.17ZM50,18.24c3.78,1.47,18,6.36,30.44,1.88-1.34-1.71-5.61-6.46-12.28-7.55C62.49,11.63,56.38,13.53,50,18.24Z"/><path class="cls-2" d="M79.32,26.77A14.79,14.79,0,0,1,67.9,35.45c-8.89,1.58-16,0-21.07,3.82C46.83,39.27,55,19.86,79.32,26.77Z"/><path class="cls-3" d="M45.39,41.11,46.27,39c.09-.2,8.66-19.81,33.21-12.84l.62.18-.21.61c-.11.3-2.76,7.45-11.89,9.06a70.9,70.9,0,0,1-8.9.87c-4.72.25-8.8.47-11.91,2.83ZM69.31,25.87a23.6,23.6,0,0,0-15,5,25.16,25.16,0,0,0-5.93,6.69c3-1.48,6.61-1.67,10.64-1.88a71.08,71.08,0,0,0,8.75-.85,14.29,14.29,0,0,0,10.7-7.69A35.32,35.32,0,0,0,69.31,25.87Z"/><path class="cls-2" d="M79.32,26.77A35.09,35.09,0,0,0,69,19.59C59.22,15.13,44.76,8.8,27.51,30.25c0,0,3.39-3.82,13.82-3.22a90,90,0,0,0,16.21,0C65.2,26.34,70.56,24.24,79.32,26.77Z"/><path class="cls-3" d="M27.51,30.85a.57.57,0,0,1-.39-.14.6.6,0,0,1-.08-.83c17.71-22,33-15,42.18-10.84a35.32,35.32,0,0,1,10.54,7.33.6.6,0,0,1,.07.72.59.59,0,0,1-.68.26c-6.41-1.85-10.88-1.19-16.05-.42-1.75.26-3.55.53-5.51.71a84.94,84.94,0,0,1-14.85.08l-1.45-.09c-9.92-.57-13.3,3-13.33,3A.6.6,0,0,1,27.51,30.85ZM52.92,15.73c-6.64,0-14.23,2.82-22.56,12.09a25.52,25.52,0,0,1,11-1.39l1.45.09a82.9,82.9,0,0,0,14.67-.08c1.93-.18,3.71-.44,5.44-.7,4.5-.67,8.78-1.3,14.31-.12a36.81,36.81,0,0,0-8.51-5.49C64.41,18.16,59.07,15.73,52.92,15.73Z"/><polygon class="cls-4" points="85.04 9.7 88.47 20.26 99.58 20.26 90.59 26.79 94.03 37.35 85.04 30.82 76.05 37.35 79.49 26.79 70.5 20.26 81.61 20.26 85.04 9.7"/><path class="cls-3" d="M95.17,38.93,85,31.57,74.91,38.93,78.78,27,68.65,19.66H81.17L85,7.75l3.87,11.91h12.52L91.3,27ZM72.35,20.86l7.84,5.7-3,9.22L85,30.08l7.84,5.7-3-9.22,7.84-5.7H88l-3-9.22-3,9.22Z"/><path class="cls-3" d="M85,87.89a2.79,2.79,0,1,1,2.74-2.31h0A2.79,2.79,0,0,1,85,87.89Zm0-4.37a1.56,1.56,0,0,0-.9.29,1.53,1.53,0,0,0-.65,1A1.6,1.6,0,0,0,83.7,86a1.55,1.55,0,0,0,1,.65,1.58,1.58,0,0,0,1.84-1.28h0a1.58,1.58,0,0,0-.27-1.19,1.6,1.6,0,0,0-1-.65Z"/><rect class="cls-3" x="79.64" y="89.01" width="9.14" height="1.2" transform="translate(-18.66 156.97) rotate(-80)"/><rect class="cls-3" x="87.43" y="83.96" width="1.2" height="9.15" transform="translate(-36.56 80.53) rotate(-41.49)"/><rect class="cls-3" x="84.99" y="84.27" width="9.15" height="1.2" transform="translate(-4.16 4.62) rotate(-2.89)"/><rect class="cls-3" x="83.09" y="80.79" width="9.14" height="1.2" transform="translate(-29.58 105.12) rotate(-54.32)"/><rect class="cls-3" x="83.15" y="76.13" width="1.2" height="9.14" transform="translate(-18.78 25.79) rotate(-15.76)"/><rect class="cls-3" x="80.18" y="78.76" width="1.2" height="9.15" transform="translate(-27.35 125.49) rotate(-67.19)"/><rect class="cls-3" x="76.41" y="86.69" width="9.15" height="1.2" transform="translate(-31.91 49.44) rotate(-28.61)"/><path class="cls-1" d="M84.54,86.48a10,10,0,0,0,2.12,5.46c1.74,2.28,3.1,1.6,3.87.53a3.6,3.6,0,0,1,.5-.54c.89-.82,2.19-1.52,2.27-2.5.1-1.18-.35-2-1.08-2s-4.87-1.34-5.54-2.17S84.54,86.48,84.54,86.48Z"/><path class="cls-3" d="M88.92,94.06a3.64,3.64,0,0,1-2.74-1.76,10.59,10.59,0,0,1-2.24-5.79l0-.22.13-.17c.28-.38,1.27-1.61,2.21-1.62a1.09,1.09,0,0,1,.9.42c.47.6,4.36,1.94,5,1.94h0a1.46,1.46,0,0,1,1.1.49,2.79,2.79,0,0,1,.56,2.13c-.08,1-.93,1.65-1.75,2.3-.24.19-.49.39-.71.59a4,4,0,0,0-.42.45,2.59,2.59,0,0,1-2.08,1.24Zm-3.77-7.39a9.47,9.47,0,0,0,2,4.9c.64.85,1.26,1.29,1.78,1.29h0a1.57,1.57,0,0,0,1.12-.74,4,4,0,0,1,.57-.63c.25-.23.52-.44.79-.65.61-.49,1.25-1,1.29-1.46a1.69,1.69,0,0,0-.24-1.21.36.36,0,0,0-.23-.1c-.81,0-5.2-1.38-6-2.4A4.61,4.61,0,0,0,85.15,86.67Z"/><path class="cls-1" d="M85.78,86.32a10,10,0,0,0,5.6,1.75c2.87.06,3.18-1.42,2.83-2.69a3.38,3.38,0,0,1-.11-.73c-.09-1.21.17-2.66-.54-3.33-.86-.81-1.76-1-2.21-.39s-4.09,3-5.15,3S85.78,86.32,85.78,86.32Z"/><path class="cls-3" d="M91.55,88.67h-.19a10.58,10.58,0,0,1-5.93-1.86l-.17-.12-.06-.21c-.12-.46-.47-2,.11-2.74a1.1,1.1,0,0,1,.89-.43h0c.76,0,4.25-2.21,4.68-2.75A1.43,1.43,0,0,1,92,80a2.76,2.76,0,0,1,2,.89,3.68,3.68,0,0,1,.71,2.8c0,.31,0,.63,0,.93a2.54,2.54,0,0,0,.09.61,2.65,2.65,0,0,1-.33,2.4A3.52,3.52,0,0,1,91.55,88.67ZM86.31,86a9.6,9.6,0,0,0,5.08,1.51,2.67,2.67,0,0,0,2.12-.59,1.55,1.55,0,0,0,.12-1.34,4,4,0,0,1-.13-.85,8.6,8.6,0,0,1,0-1c0-.78,0-1.6-.33-1.91A1.66,1.66,0,0,0,92,81.19a.27.27,0,0,0-.21.11c-.51.65-4.32,3.21-5.63,3.21h0A4.36,4.36,0,0,0,86.31,86Z"/><path class="cls-1" d="M86.44,85.25A10,10,0,0,0,91.29,82c1.84-2.21.88-3.38-.34-3.9a4.13,4.13,0,0,1-.64-.36c-1-.69-2-1.8-2.94-1.66-1.17.17-1.85.78-1.67,1.49s-.23,5-.89,5.88S86.44,85.25,86.44,85.25Z"/><path class="cls-3" d="M86.4,85.89l-.2-.09c-.43-.19-1.85-.87-2.08-1.79a1.14,1.14,0,0,1,.22-1c.48-.59.93-4.7.77-5.36a1.5,1.5,0,0,1,.22-1.2,2.75,2.75,0,0,1,2-1,3.65,3.65,0,0,1,2.63,1.19c.24.19.49.39.73.56a3.58,3.58,0,0,0,.54.31,2.64,2.64,0,0,1,1.67,1.75,3.62,3.62,0,0,1-1.11,3.08,10.61,10.61,0,0,1-5.14,3.48Zm1.14-9.25h-.08a1.68,1.68,0,0,0-1.13.5.27.27,0,0,0,0,.24c.2.8-.18,5.38-1,6.4a4.09,4.09,0,0,0,1.2.82,9.51,9.51,0,0,0,4.35-3,2.65,2.65,0,0,0,.86-2,1.52,1.52,0,0,0-1-.92A4.22,4.22,0,0,1,90,78.2c-.27-.18-.54-.4-.81-.62A3.47,3.47,0,0,0,87.54,76.64Z"/><path class="cls-1" d="M86,84.07a10,10,0,0,0,.46-5.84c-.58-2.82-2.09-2.79-3.26-2.16a4.59,4.59,0,0,1-.68.27c-1.16.35-2.63.42-3.13,1.26-.6,1-.55,1.93.11,2.24s3.82,3.32,4,4.36S86,84.07,86,84.07Z"/><path class="cls-3" d="M84.22,85.22a1.48,1.48,0,0,1-.63-.12,1.09,1.09,0,0,1-.61-.77c-.17-.74-3.1-3.65-3.72-3.94a1.49,1.49,0,0,1-.8-.92,2.77,2.77,0,0,1,.42-2.17A3.62,3.62,0,0,1,81.45,76c.31-.07.61-.14.9-.23a2.69,2.69,0,0,0,.58-.23,2.66,2.66,0,0,1,2.41-.21,3.65,3.65,0,0,1,1.72,2.79,10.62,10.62,0,0,1-.49,6.19l-.09.2-.19.1A5.08,5.08,0,0,1,84.22,85.22Zm.19-8.9a2,2,0,0,0-.92.28,3.94,3.94,0,0,1-.79.31c-.32.1-.65.18-1,.25-.77.17-1.56.35-1.79.75a1.65,1.65,0,0,0-.31,1.2.26.26,0,0,0,.16.18c.75.35,4.09,3.5,4.38,4.77a4.11,4.11,0,0,0,1.39-.43,9.56,9.56,0,0,0,.34-5.28c-.22-1-.58-1.72-1-1.94A1.06,1.06,0,0,0,84.41,76.32Z"/><path class="cls-1" d="M84.82,83.67a10,10,0,0,0-4.28-4c-2.57-1.3-3.49-.1-3.73,1.2a3.27,3.27,0,0,1-.21.7c-.45,1.13-1.31,2.32-1,3.24.43,1.1,1.17,1.63,1.82,1.3s5-.91,5.93-.45S84.82,83.67,84.82,83.67Z"/><path class="cls-3" d="M77.07,86.81a1.59,1.59,0,0,1-.56-.11A2.76,2.76,0,0,1,75.08,85a3.67,3.67,0,0,1,.57-2.82c.14-.29.28-.57.39-.85a3.16,3.16,0,0,0,.18-.59,2.64,2.64,0,0,1,1.34-2,3.65,3.65,0,0,1,3.25.39,10.67,10.67,0,0,1,4.54,4.25l.1.19,0,.21c-.09.46-.44,2-1.29,2.42a1.08,1.08,0,0,1-1,0c-.68-.33-4.78.15-5.4.45A1.4,1.4,0,0,1,77.07,86.81Zm1.56-7.1a1.27,1.27,0,0,0-.54.11A1.54,1.54,0,0,0,77.41,81a5.24,5.24,0,0,1-.25.82c-.12.3-.27.61-.42.92-.35.71-.7,1.44-.54,1.87a1.68,1.68,0,0,0,.75,1,.25.25,0,0,0,.24,0c.74-.37,5.29-1,6.47-.45a4.42,4.42,0,0,0,.52-1.35,9.42,9.42,0,0,0-3.92-3.56A3.8,3.8,0,0,0,78.63,79.71Z"/><path class="cls-1" d="M83.76,84.35A10,10,0,0,0,78,85.2c-2.62,1.19-2.26,2.66-1.39,3.66a3.37,3.37,0,0,1,.42.6c.6,1.05,1,2.47,1.93,2.77,1.13.36,2,.1,2.15-.61s2.4-4.46,3.35-4.91S83.76,84.35,83.76,84.35Z"/><path class="cls-3" d="M79.87,93a3.66,3.66,0,0,1-1.13-.19c-.93-.29-1.4-1.27-1.84-2.21-.14-.28-.28-.57-.42-.83a3.43,3.43,0,0,0-.35-.51,2.65,2.65,0,0,1-.75-2.3,3.67,3.67,0,0,1,2.34-2.3,10.65,10.65,0,0,1,6.14-.9l.22,0,.14.17c.3.35,1.28,1.59,1.09,2.51a1.09,1.09,0,0,1-.62.78c-.68.33-2.87,3.83-3,4.5a1.47,1.47,0,0,1-.72,1A2.06,2.06,0,0,1,79.87,93Zm2.43-8.16a10,10,0,0,0-4.09.92c-1,.44-1.54.94-1.65,1.45A1.54,1.54,0,0,0,77,88.46a4.36,4.36,0,0,1,.48.71c.16.28.31.59.46.9.34.71.69,1.45,1.13,1.59a1.71,1.71,0,0,0,1.24,0,.31.31,0,0,0,.15-.19c.17-.81,2.5-4.77,3.67-5.34a4.23,4.23,0,0,0-.73-1.25A7.25,7.25,0,0,0,82.3,84.83Z"/><path class="cls-1" d="M83.64,85.6a10,10,0,0,0-3,5.06c-.7,2.79.68,3.42,2,3.37a3.06,3.06,0,0,1,.73,0c1.19.18,2.55.76,3.37.21,1-.66,1.33-1.5.86-2.06s-2-4.65-1.75-5.69S83.64,85.6,83.64,85.6Z"/><path class="cls-3" d="M85.91,95.12a7.62,7.62,0,0,1-1.67-.26c-.31-.07-.61-.14-.91-.19a2.82,2.82,0,0,0-.62,0,2.69,2.69,0,0,1-2.26-.86,3.59,3.59,0,0,1-.34-3.25,10.66,10.66,0,0,1,3.12-5.37L83.4,85h.21c.48,0,2,0,2.65.72a1.1,1.1,0,0,1,.22,1c-.17.74,1.21,4.63,1.64,5.16A1.48,1.48,0,0,1,88.44,93a2.71,2.71,0,0,1-1.32,1.77A2.07,2.07,0,0,1,85.91,95.12Zm-3.11-1.7a4.64,4.64,0,0,1,.71.06c.33,0,.67.13,1,.21.77.18,1.56.36,1.94.1a1.63,1.63,0,0,0,.8-1,.24.24,0,0,0-.06-.23c-.52-.64-2.17-4.93-1.88-6.2a4.2,4.2,0,0,0-1.44-.21,9.55,9.55,0,0,0-2.6,4.61,2.62,2.62,0,0,0,.11,2.2,1.53,1.53,0,0,0,1.28.41Z"/><path class="cls-1" d="M85,85.91a5.35,5.35,0,0,0-.48.57,10,10,0,0,0,2.12,5.46c1.74,2.28,3.1,1.6,3.87.53a3.6,3.6,0,0,1,.5-.54"/><path class="cls-3" d="M88.92,94.06a3.64,3.64,0,0,1-2.74-1.76,10.59,10.59,0,0,1-2.24-5.79l0-.21.13-.18s.22-.29.53-.62l.88.82c-.13.13-.23.26-.31.35a9.56,9.56,0,0,0,2,4.9c.64.85,1.26,1.29,1.78,1.29h0a1.57,1.57,0,0,0,1.12-.74,4,4,0,0,1,.57-.63l.82.88a4,4,0,0,0-.42.45,2.59,2.59,0,0,1-2.08,1.24Z"/><circle class="cls-5" cx="85" cy="85.1" r="2.75"/><path class="cls-3" d="M85,88.45a2.84,2.84,0,0,1-.58,0,3.35,3.35,0,1,1,1.16-6.59,3.33,3.33,0,0,1,2.71,3.87h0A3.34,3.34,0,0,1,85,88.45ZM85,83a2.08,2.08,0,0,0-1.22.39,2.15,2.15,0,0,0,.86,3.87,2.16,2.16,0,0,0,2.48-1.74h0a2.14,2.14,0,0,0-.36-1.61A2.17,2.17,0,0,0,85.37,83,2.43,2.43,0,0,0,85,83Z"/><path class="cls-3" d="M24.13,102.52a1.44,1.44,0,0,0-.57-.33,1.3,1.3,0,0,0-1.13-.19,1.48,1.48,0,0,0-1,1,3.24,3.24,0,0,0-.76,1.34,1.43,1.43,0,0,0,.65,1.59,1.7,1.7,0,0,0,.7.19,1.5,1.5,0,0,0,.71-.18,1.12,1.12,0,0,0,.36,0,1.72,1.72,0,0,0,.84-.64,1.83,1.83,0,0,0,.32-.87A1.41,1.41,0,0,0,24.13,102.52Z"/><path class="cls-3" d="M21.55,78.2a1.46,1.46,0,0,0-1.77-.58,1.41,1.41,0,0,0-.49,2.76,2.18,2.18,0,0,0,1.76-.25,1.6,1.6,0,0,0,.65-.84A1.43,1.43,0,0,0,21.55,78.2Z"/><path class="cls-3" d="M28.63,54.46a1.5,1.5,0,0,0-.64-.84,1.44,1.44,0,0,0-1.09-.14,1,1,0,0,0-.22.09l-.15,0a1.44,1.44,0,0,0-1,1.73,1.61,1.61,0,0,0,3.09-.87Z"/><path class="cls-3" d="M26,120a3.51,3.51,0,1,1,3.4-4.39h0a3.51,3.51,0,0,1-2.52,4.27A3.33,3.33,0,0,1,26,120Zm0-5.82a2.38,2.38,0,0,0-.58.08,2.3,2.3,0,1,0,2.81,1.65h0A2.3,2.3,0,0,0,26,114.18Z"/><rect class="cls-3" x="26.93" y="116.3" width="1.2" height="12.16" transform="translate(-29.83 10.83) rotate(-14.54)"/><rect class="cls-3" x="30.96" y="112.89" width="1.2" height="12.17" transform="translate(-89.95 99.37) rotate(-65.98)"/><rect class="cls-3" x="25.32" y="113.09" width="12.17" height="1.2" transform="translate(-48.84 27.24) rotate(-27.43)"/><rect class="cls-3" x="21.1" y="109.93" width="12.16" height="1.2" transform="translate(-86.52 115.7) rotate(-78.78)"/><rect class="cls-3" x="21.47" y="105.77" width="1.2" height="12.16" transform="translate(-67.06 40.77) rotate(-40.27)"/><rect class="cls-3" x="13.84" y="116.07" width="12.17" height="1.2" transform="translate(-3.42 0.64) rotate(-1.68)"/><rect class="cls-3" x="16.27" y="120.75" width="12.17" height="1.2" transform="translate(-88.1 66.33) rotate(-53.08)"/><path class="cls-1" d="M26.2,118.41a13.4,13.4,0,0,0,5.59,5.44c3.37,1.8,4.63.23,5-1.5a5.27,5.27,0,0,1,.3-.93c.63-1.48,1.81-3,1.37-4.27-.53-1.48-1.51-2.2-2.39-1.78s-6.64,1.07-7.9.43S26.2,118.41,26.2,118.41Z"/><path class="cls-3" d="M34.38,125.25a6.31,6.31,0,0,1-2.88-.87,14,14,0,0,1-5.83-5.69l-.1-.19,0-.22c.09-.41.59-2.52,1.68-3a1.24,1.24,0,0,1,1.14,0c1,.53,6.59-.07,7.37-.44a1.77,1.77,0,0,1,1.46,0A3.48,3.48,0,0,1,39,117c.42,1.15-.22,2.38-.83,3.58-.19.38-.39.76-.54,1.13a4.57,4.57,0,0,0-.27.82,3.3,3.3,0,0,1-1.73,2.5A2.83,2.83,0,0,1,34.38,125.25Zm-7.54-6.93a12.82,12.82,0,0,0,5.23,5c1.31.7,2.36.9,3,.57a2.23,2.23,0,0,0,1.06-1.66,5.43,5.43,0,0,1,.34-1c.17-.4.37-.8.58-1.21.5-1,1-2,.77-2.63a2.43,2.43,0,0,0-1.07-1.45.56.56,0,0,0-.49,0c-1,.46-6.92,1.19-8.43.42C27.48,116.48,27.06,117.46,26.84,118.32Z"/><path class="cls-1" d="M27.63,117.53a13.22,13.22,0,0,0,7.73-1c3.51-1.5,3.07-3.47,1.94-4.82a4.81,4.81,0,0,1-.53-.82c-.77-1.41-1.26-3.31-2.49-3.73-1.49-.51-2.66-.2-2.88.75s-3.31,5.86-4.6,6.44S27.63,117.53,27.63,117.53Z"/><path class="cls-3" d="M29.83,118.34a12.22,12.22,0,0,1-2.32-.22l-.21,0-.14-.16c-.27-.34-1.61-2-1.34-3.21a1.29,1.29,0,0,1,.73-.88c1.05-.47,4.06-5.19,4.26-6a1.72,1.72,0,0,1,.89-1.16,3.42,3.42,0,0,1,2.77,0c1.16.39,1.73,1.66,2.28,2.89.18.38.35.77.55,1.13a4.49,4.49,0,0,0,.47.72,3.34,3.34,0,0,1,.88,2.91c-.27,1.14-1.3,2.1-3,2.85A14.64,14.64,0,0,1,29.83,118.34ZM28,117a12.78,12.78,0,0,0,7.16-1c1.37-.58,2.18-1.28,2.36-2a2.26,2.26,0,0,0-.64-1.86,5.43,5.43,0,0,1-.6-.92c-.21-.38-.4-.8-.58-1.21-.45-1-.91-2-1.57-2.24a2.43,2.43,0,0,0-1.81-.07.57.57,0,0,0-.3.39c-.25,1-3.39,6.15-4.93,6.85C26.92,115.33,27.41,116.27,28,117Z"/><path class="cls-1" d="M27.83,115.87a13.2,13.2,0,0,0,4.06-6.65c1-3.69-.8-4.56-2.56-4.52a5.47,5.47,0,0,1-1-.09c-1.59-.29-3.38-1.09-4.47-.39-1.33.85-1.81,2-1.22,2.72s2.52,6.24,2.18,7.61S27.83,115.87,27.83,115.87Z"/><path class="cls-3" d="M27.75,116.48c-.59,0-2.55-.07-3.25-1a1.2,1.2,0,0,1-.23-1.11c.28-1.12-1.54-6.42-2.07-7.09a1.76,1.76,0,0,1-.35-1.42,3.49,3.49,0,0,1,1.71-2.19c1-.65,2.38-.31,3.68,0,.41.11.82.21,1.22.28a4.09,4.09,0,0,0,.86.08,3.37,3.37,0,0,1,2.83,1.13c.72.92.83,2.32.32,4.16a13.94,13.94,0,0,1-4.25,7l-.16.14h-.31ZM25,104.55a1.45,1.45,0,0,0-.78.18A2.47,2.47,0,0,0,23,106.1a.57.57,0,0,0,.12.47c.66.85,2.7,6.49,2.28,8.13.23.35,1.28.55,2.17.57a12.77,12.77,0,0,0,3.71-6.21c.39-1.43.35-2.5-.11-3.1a2.25,2.25,0,0,0-1.86-.66,5.58,5.58,0,0,1-1.09-.1c-.42-.08-.87-.19-1.3-.3A8.47,8.47,0,0,0,25,104.55Z"/><path class="cls-1" d="M26.66,114.68A13.34,13.34,0,0,0,24,107.36c-2.25-3.09-4.07-2.22-5.14-.82a4.87,4.87,0,0,1-.67.7c-1.21,1.06-2.95,2-3.09,3.26-.16,1.57.4,2.64,1.37,2.64s6.45,1.92,7.31,3S26.66,114.68,26.66,114.68Z"/><path class="cls-3" d="M24.31,117.07h0a1.26,1.26,0,0,1-1-.52c-.7-.91-6-2.8-6.83-2.8a1.79,1.79,0,0,1-1.33-.61,3.49,3.49,0,0,1-.64-2.7c.13-1.22,1.24-2.06,2.31-2.87.34-.25.67-.51,1-.78a4.12,4.12,0,0,0,.59-.62A3.34,3.34,0,0,1,21,104.66h0c1.17,0,2.33.8,3.46,2.34a13.93,13.93,0,0,1,2.78,7.66v.22l-.14.17C26.87,115.39,25.51,117.07,24.31,117.07ZM21,105.87a2.27,2.27,0,0,0-1.66,1,5,5,0,0,1-.76.8c-.32.28-.68.56-1.05.83-.86.66-1.76,1.34-1.83,2a2.41,2.41,0,0,0,.34,1.78.54.54,0,0,0,.44.2c1.08,0,6.75,1.94,7.78,3.28.42,0,1.23-.65,1.8-1.34a12.86,12.86,0,0,0-2.55-6.77c-.87-1.2-1.74-1.84-2.49-1.84Z"/><path class="cls-1" d="M25,114.85a13.36,13.36,0,0,0-7.39-2.48c-3.82-.16-4.27,1.8-3.84,3.51a4.29,4.29,0,0,1,.13,1c.08,1.6-.3,3.53.62,4.44,1.13,1.11,2.32,1.33,2.93.58S23,118,24.37,118.05,25,114.85,25,114.85Z"/><path class="cls-3" d="M16.49,122.91a3.61,3.61,0,0,1-2.4-1.19c-.87-.86-.83-2.25-.8-3.59,0-.42,0-.85,0-1.25a3.82,3.82,0,0,0-.11-.85,3.29,3.29,0,0,1,.47-3c.73-.91,2.06-1.33,4-1.25a13.94,13.94,0,0,1,7.72,2.6l.18.13,0,.21c.1.41.57,2.53-.19,3.47a1.21,1.21,0,0,1-1,.47h0c-1.18,0-5.9,2.93-6.43,3.59a1.76,1.76,0,0,1-1.3.67Zm.68-9.94a3.31,3.31,0,0,0-2.59.81,2.23,2.23,0,0,0-.23,2,5.56,5.56,0,0,1,.14,1.09c0,.43,0,.89,0,1.34,0,1.09-.05,2.21.45,2.7a2.43,2.43,0,0,0,1.6.85.55.55,0,0,0,.43-.22c.68-.84,5.76-4.08,7.41-4,.3-.31.26-1.37.08-2.24A12.77,12.77,0,0,0,17.58,113Z"/><path class="cls-1" d="M24.09,116.26a13.28,13.28,0,0,0-6.54,4.23c-2.51,2.88-1.26,4.46.34,5.19a5.3,5.3,0,0,1,.84.5c1.3.94,2.57,2.44,3.86,2.29,1.56-.19,2.48-1,2.27-1.93s.44-6.72,1.34-7.8S24.09,116.26,24.09,116.26Z"/><path class="cls-3" d="M22.4,129.08c-1.11,0-2.09-.83-3-1.63-.32-.27-.65-.54-1-.78a4.44,4.44,0,0,0-.74-.44A3.32,3.32,0,0,1,15.58,124c-.25-1.14.26-2.45,1.51-3.89a13.93,13.93,0,0,1,6.85-4.41l.21-.06.2.09c.38.18,2.33,1.14,2.59,2.31a1.26,1.26,0,0,1-.27,1.11c-.74.88-1.41,6.44-1.22,7.28a1.74,1.74,0,0,1-.3,1.43,3.44,3.44,0,0,1-2.49,1.22A1.18,1.18,0,0,1,22.4,129.08ZM24,116.9a12.85,12.85,0,0,0-6,4c-1,1.12-1.41,2.11-1.24,2.85a2.23,2.23,0,0,0,1.38,1.4,5.78,5.78,0,0,1,.94.56c.35.26.7.55,1.05.84.83.7,1.7,1.42,2.39,1.34a2.43,2.43,0,0,0,1.65-.73.54.54,0,0,0,.1-.47c-.23-1,.39-7,1.47-8.31C25.69,117.94,24.83,117.3,24,116.9Z"/><path class="cls-1" d="M24.63,117.84a13.34,13.34,0,0,0-.77,7.76c.69,3.76,2.7,3.76,4.27,3a4.75,4.75,0,0,1,.92-.34c1.54-.43,3.51-.49,4.19-1.59.83-1.34.78-2.55-.09-3s-5-4.53-5.26-5.91S24.63,117.84,24.63,117.84Z"/><path class="cls-3" d="M26.57,129.59a2.63,2.63,0,0,1-1.21-.28c-1-.51-1.75-1.73-2.1-3.6a14,14,0,0,1,.82-8.11l.09-.2.19-.1c.38-.19,2.34-1.11,3.42-.59a1.28,1.28,0,0,1,.7.91c.23,1.13,4.16,5.11,4.93,5.49a1.76,1.76,0,0,1,.94,1.12,3.47,3.47,0,0,1-.6,2.71c-.64,1-2,1.32-3.32,1.58-.42.09-.83.17-1.22.28a4.35,4.35,0,0,0-.81.3A4,4,0,0,1,26.57,129.59Zm-1.48-11.3a12.81,12.81,0,0,0-.64,7.2c.27,1.46.77,2.41,1.45,2.75a2.28,2.28,0,0,0,2-.21,5,5,0,0,1,1-.39c.42-.11.87-.2,1.31-.29,1.07-.22,2.17-.44,2.54-1a2.45,2.45,0,0,0,.46-1.75.57.57,0,0,0-.31-.37c-1-.48-5.24-4.67-5.58-6.33C26.94,117.64,25.91,117.92,25.09,118.29Z"/><path class="cls-1" d="M26.47,117.46c-.17.52-.27,1-.27,1a13.4,13.4,0,0,0,5.59,5.44c3.37,1.8,4.63.23,5-1.5a5.27,5.27,0,0,1,.3-.93"/><path class="cls-3" d="M34.38,125.25a6.31,6.31,0,0,1-2.88-.87,14,14,0,0,1-5.83-5.69l-.1-.19,0-.22s.11-.47.3-1l1.13.39c-.09.27-.16.51-.2.68a12.88,12.88,0,0,0,5.23,5c1.31.7,2.36.9,3,.57a2.23,2.23,0,0,0,1.06-1.66,5.43,5.43,0,0,1,.34-1l1.11.47a4.57,4.57,0,0,0-.27.82,3.3,3.3,0,0,1-1.73,2.5A2.83,2.83,0,0,1,34.38,125.25Z"/><circle class="cls-5" cx="26" cy="116.49" r="3.65"/><path class="cls-3" d="M26,120.75a4.25,4.25,0,1,1,4.12-5.33h0a4.26,4.26,0,0,1-3.05,5.19A4.3,4.3,0,0,1,26,120.75Zm0-7.31a2.86,2.86,0,0,0-.77.1A3,3,0,0,0,23.38,115a3,3,0,0,0-.33,2.31,3,3,0,0,0,1.41,1.86,3,3,0,0,0,2.31.33A3.06,3.06,0,0,0,29,115.73a3.09,3.09,0,0,0-1.41-1.87A3,3,0,0,0,26,113.44Z"/><path class="cls-3" d="M18.41,95.43a3.31,3.31,0,0,1-.44,0,3.49,3.49,0,0,1-2.31-1.32,3.45,3.45,0,0,1-.7-2.57,3.48,3.48,0,1,1,6.9.87h0A3.47,3.47,0,0,1,18.41,95.43Zm0-5.75a2.27,2.27,0,0,0-1.8,3.67,2.23,2.23,0,0,0,1.51.86,2.27,2.27,0,1,0,.58-4.51A1.46,1.46,0,0,0,18.41,89.68Z"/><rect class="cls-3" x="11.63" y="97.33" width="12.04" height="1.2" transform="translate(-81.72 103.11) rotate(-82.77)"/><rect class="cls-3" x="22.01" y="90.25" width="1.2" height="12.05" transform="translate(-60.72 43.02) rotate(-44.2)"/><rect class="cls-3" x="18.38" y="90.77" width="12.05" height="1.2" transform="translate(-8.83 2.83) rotate(-5.62)"/><rect class="cls-3" x="15.67" y="86.3" width="12.05" height="1.2" transform="translate(-63.01 57.76) rotate(-57)"/><rect class="cls-3" x="15.9" y="80.22" width="1.2" height="12.04" transform="translate(-26.49 9.68) rotate(-18.49)"/><rect class="cls-3" x="12.15" y="83.86" width="1.2" height="12.05" transform="translate(-76.05 70.99) rotate(-69.91)"/><rect class="cls-3" x="7.24" y="94.49" width="12.05" height="1.2" transform="translate(-47.48 20.74) rotate(-31.31)"/><path class="cls-1" d="M17.89,93.79A13.18,13.18,0,0,0,21,100.85c2.44,2.89,4.17,1.91,5.13.45a5.18,5.18,0,0,1,.62-.74c1.12-1.13,2.78-2.14,2.82-3.43.06-1.56-.57-2.58-1.53-2.52s-6.51-1.45-7.43-2.5S17.89,93.79,17.89,93.79Z"/><path class="cls-3" d="M24,103.32c-1.11,0-2.26-.7-3.42-2.09a13.87,13.87,0,0,1-3.28-7.37l0-.22.12-.18c.24-.35,1.47-2.11,2.66-2.19a1.3,1.3,0,0,1,1.05.44c.75.86,6.08,2.35,6.93,2.3a1.79,1.79,0,0,1,1.36.51,3.46,3.46,0,0,1,.82,2.63c-.05,1.22-1.09,2.12-2.09,3-.32.27-.63.55-.91.83a4.16,4.16,0,0,0-.55.66,3.26,3.26,0,0,1-2.51,1.67ZM18.51,94a12.71,12.71,0,0,0,3,6.51c.94,1.12,1.83,1.69,2.59,1.65A2.2,2.2,0,0,0,25.65,101a6.72,6.72,0,0,1,.7-.83c.3-.31.64-.6,1-.9.81-.71,1.65-1.44,1.67-2.13a2.41,2.41,0,0,0-.45-1.73.54.54,0,0,0-.45-.16H28c-1.23,0-6.76-1.48-7.84-2.71h0C19.77,92.51,19,93.24,18.51,94Z"/><path class="cls-1" d="M19.52,93.51A13.15,13.15,0,0,0,27,95.46c3.78-.09,4.1-2.06,3.56-3.72a4,4,0,0,1-.19-.95c-.19-1.58.06-3.51-.92-4.35-1.18-1-2.38-1.15-2.93-.37s-5.19,4.17-6.59,4.24S19.52,93.51,19.52,93.51Z"/><path class="cls-3" d="M26.61,96.07a13.69,13.69,0,0,1-7.41-2L19,93.9,19,93.69c-.13-.4-.73-2.46-.05-3.44a1.25,1.25,0,0,1,1-.54c1.14-.06,5.64-3.29,6.13-4A1.76,1.76,0,0,1,27.27,85a3.44,3.44,0,0,1,2.56,1c.92.79,1,2.16,1,3.5,0,.41,0,.83.08,1.23a4.44,4.44,0,0,0,.17.83,3.27,3.27,0,0,1-.26,3c-.67,1-2,1.46-3.86,1.5ZM20,93.12A12.56,12.56,0,0,0,27,94.86c1.47,0,2.48-.38,2.91-1a2.25,2.25,0,0,0,.1-1.94,5.58,5.58,0,0,1-.22-1.07c-.05-.43-.07-.87-.09-1.32-.05-1.08-.1-2.19-.62-2.64a2.35,2.35,0,0,0-1.63-.72.55.55,0,0,0-.41.24c-.62.87-5.39,4.41-7.06,4.49A3.44,3.44,0,0,0,20,93.12Z"/><path class="cls-1" d="M20.32,92.06a13.23,13.23,0,0,0,6.18-4.63c2.28-3,.94-4.49-.69-5.1a5.08,5.08,0,0,1-.87-.44c-1.35-.84-2.7-2.24-4-2-1.53.29-2.38,1.13-2.11,2s0,6.67-.8,7.8S20.32,92.06,20.32,92.06Z"/><path class="cls-3" d="M20.31,92.7l-.21-.08c-.39-.15-2.38-1-2.72-2.11a1.21,1.21,0,0,1,.2-1.11c.66-.93.94-6.46.7-7.28a1.76,1.76,0,0,1,.19-1.43,3.48,3.48,0,0,1,2.39-1.39c1.2-.22,2.31.59,3.38,1.37.34.25.68.5,1,.71a4.6,4.6,0,0,0,.76.39,3.28,3.28,0,0,1,2.19,2.08c.32,1.11-.09,2.44-1.23,4a13.89,13.89,0,0,1-6.47,4.83Zm1-12.23-.18,0a2.39,2.39,0,0,0-1.59.82.56.56,0,0,0-.06.47c.3,1,.09,7-.89,8.32.08.41,1,1,1.78,1.32A12.77,12.77,0,0,0,26,87.07c.88-1.17,1.24-2.17,1-2.89a2.23,2.23,0,0,0-1.46-1.29,5.14,5.14,0,0,1-1-.49c-.37-.22-.73-.49-1.1-.75A4.84,4.84,0,0,0,21.27,80.47Z"/><path class="cls-1" d="M19.68,90.53a13.23,13.23,0,0,0,.24-7.71C19,79.15,17,79.28,15.49,80.18a6,6,0,0,1-.88.4c-1.5.53-3.43.72-4,1.86-.73,1.38-.6,2.57.29,2.93s5.22,4.14,5.6,5.48S19.68,90.53,19.68,90.53Z"/><path class="cls-3" d="M17.27,92a1.81,1.81,0,0,1-.63-.11,1.25,1.25,0,0,1-.75-.86c-.31-1.09-4.46-4.76-5.25-5.08a1.73,1.73,0,0,1-1-1.05,3.46,3.46,0,0,1,.4-2.72c.57-1.08,1.9-1.44,3.18-1.79.41-.12.81-.23,1.19-.36a4.48,4.48,0,0,0,.78-.35,3.29,3.29,0,0,1,3-.42c1.08.44,1.86,1.6,2.33,3.43a13.81,13.81,0,0,1-.25,8.06l-.08.21-.19.11A6.4,6.4,0,0,1,17.27,92Zm-.11-11.73a2.81,2.81,0,0,0-1.36.44,5.11,5.11,0,0,1-1,.45c-.4.15-.84.27-1.27.39-1,.28-2.11.58-2.43,1.19a2.4,2.4,0,0,0-.34,1.75.56.56,0,0,0,.32.35c1,.4,5.51,4.26,6,5.87.37.19,1.36-.15,2.14-.57A12.7,12.7,0,0,0,19.33,83c-.36-1.43-.92-2.33-1.61-2.62A1.54,1.54,0,0,0,17.16,80.25Z"/><path class="cls-1" d="M18.09,90.08a13.22,13.22,0,0,0-5.89-5c-3.45-1.55-4.59.09-4.82,1.82a5.2,5.2,0,0,1-.24.94c-.52,1.5-1.57,3.13-1.06,4.31.63,1.43,1.64,2.07,2.48,1.6s6.49-1.5,7.78-1S18.09,90.08,18.09,90.08Z"/><path class="cls-3" d="M8,94.51a2,2,0,0,1-.58-.1,3.46,3.46,0,0,1-1.88-2c-.49-1.11.06-2.38.58-3.6.17-.39.33-.77.46-1.15a4.3,4.3,0,0,0,.21-.82,3.29,3.29,0,0,1,1.54-2.6c1-.57,2.4-.46,4.13.32a13.73,13.73,0,0,1,6.15,5.22l.11.19,0,.21c-.06.42-.41,2.54-1.45,3.13a1.22,1.22,0,0,1-1.13,0c-1.05-.44-6.5.52-7.25.94A1.76,1.76,0,0,1,8,94.51ZM9.8,85.07a1.81,1.81,0,0,0-.9.2A2.21,2.21,0,0,0,8,87a5.81,5.81,0,0,1-.27,1c-.14.41-.32.82-.49,1.23-.43,1-.86,2-.59,2.65a2.46,2.46,0,0,0,1.16,1.36.58.58,0,0,0,.48,0c.93-.52,6.76-1.65,8.3-1,.38-.17.73-1.17.89-2A12.69,12.69,0,0,0,12,85.63,5.56,5.56,0,0,0,9.8,85.07Z"/><path class="cls-1" d="M16.74,91a13.2,13.2,0,0,0-7.58,1.49c-3.36,1.72-2.79,3.63-1.59,4.89a5.21,5.21,0,0,1,.59.77c.85,1.35,1.47,3.19,2.71,3.52,1.51.41,2.64,0,2.8-.93s2.87-6,4.1-6.68S16.74,91,16.74,91Z"/><path class="cls-3" d="M12,102.47a5.36,5.36,0,0,1-1.27-.17c-1.17-.32-1.82-1.53-2.45-2.71-.2-.36-.39-.73-.61-1.07a4.27,4.27,0,0,0-.51-.68A3.3,3.3,0,0,1,6.07,95c.19-1.15,1.14-2.17,2.82-3a13.79,13.79,0,0,1,7.92-1.55l.22,0,.15.16c.29.31,1.73,1.9,1.54,3.08a1.27,1.27,0,0,1-.67.92c-1,.54-3.65,5.41-3.79,6.25a1.76,1.76,0,0,1-.8,1.21A2.73,2.73,0,0,1,12,102.47ZM15.4,91.56a13,13,0,0,0-6,1.5c-1.31.67-2.06,1.42-2.19,2.16A2.24,2.24,0,0,0,8,97a5.35,5.35,0,0,1,.66.86c.23.36.44.76.65,1.16.51.94,1,1.92,1.7,2.1a2.45,2.45,0,0,0,1.79,0,.54.54,0,0,0,.26-.4c.18-1.05,2.94-6.31,4.41-7.11.1-.4-.45-1.3-1-2C16.15,91.58,15.79,91.56,15.4,91.56Z"/><path class="cls-1" d="M16.65,92.69a13.24,13.24,0,0,0-3.56,6.85c-.75,3.71,1.1,4.46,2.84,4.3a5.31,5.31,0,0,1,1,0c1.58.17,3.41.84,4.44.08,1.25-.93,1.66-2.06,1-2.78s-2.91-6-2.66-7.36S16.65,92.69,16.65,92.69Z"/><path class="cls-3" d="M20,104.9a11.28,11.28,0,0,1-2-.24c-.41-.08-.83-.16-1.23-.2a4.15,4.15,0,0,0-.85,0,3.31,3.31,0,0,1-2.87-.92c-.78-.86-1-2.24-.61-4.1a13.85,13.85,0,0,1,3.73-7.16l.15-.15.22,0c.42,0,2.57-.16,3.37.72a1.27,1.27,0,0,1,.31,1.09c-.2,1.13,1.95,6.23,2.52,6.86a1.77,1.77,0,0,1,.45,1.38,3.46,3.46,0,0,1-1.55,2.28A2.74,2.74,0,0,1,20,104.9Zm-3.75-1.68c.21,0,.44,0,.69,0,.43,0,.87.13,1.31.21,1.06.19,2.16.39,2.71,0A2.37,2.37,0,0,0,22.05,102a.56.56,0,0,0-.14-.45c-.72-.79-3.11-6.23-2.82-7.88-.25-.33-1.29-.45-2.17-.41a12.67,12.67,0,0,0-3.24,6.38c-.29,1.44-.18,2.5.32,3.06a2.24,2.24,0,0,0,1.87.52Z"/><path class="cls-1" d="M18.49,93a8.21,8.21,0,0,0-.6.77A13.18,13.18,0,0,0,21,100.85c2.44,2.89,4.17,1.91,5.13.45a5.18,5.18,0,0,1,.62-.74"/><path class="cls-3" d="M24,103.32c-1.11,0-2.26-.7-3.42-2.09a13.87,13.87,0,0,1-3.28-7.37l0-.22.12-.18a9.89,9.89,0,0,1,.64-.84l.92.79c-.19.21-.34.41-.44.54a12.65,12.65,0,0,0,3,6.51c.94,1.12,1.83,1.69,2.59,1.65A2.2,2.2,0,0,0,25.65,101a6.72,6.72,0,0,1,.7-.83l.86.84a4.16,4.16,0,0,0-.55.66,3.26,3.26,0,0,1-2.51,1.67Z"/><circle class="cls-5" cx="18.41" cy="91.96" r="3.62"/><path class="cls-3" d="M18.42,96.18a3.27,3.27,0,0,1-.54,0,4.22,4.22,0,0,1,1.06-8.37,4.22,4.22,0,0,1-.52,8.41Zm0-7.24a3,3,0,1,0,3,3.4A3,3,0,0,0,18.79,89,2.56,2.56,0,0,0,18.4,88.94Z"/><path class="cls-3" d="M20.61,70.05a3.54,3.54,0,1,1,1.22-.23A3.39,3.39,0,0,1,20.61,70.05Zm0-5.76a2.2,2.2,0,0,0-.79.14,2.27,2.27,0,0,0-.15,4.2,2.24,2.24,0,0,0,1.74.07,2.27,2.27,0,0,0,1.34-2.93A2.27,2.27,0,0,0,20.61,64.29Z"/><rect class="cls-3" x="22.12" y="66.19" width="1.2" height="12.04" transform="translate(-23.82 12.51) rotate(-20.47)"/><rect class="cls-3" x="25.74" y="62.41" width="1.2" height="12.05" transform="translate(-46.89 72.23) rotate(-71.91)"/><rect class="cls-3" x="19.63" y="62.66" width="12.05" height="1.2" transform="translate(-30.51 24.46) rotate(-33.29)"/><rect class="cls-3" x="15.15" y="59.97" width="12.04" height="1.2" transform="translate(-41.08 76.1) rotate(-84.74)"/><rect class="cls-3" x="15.67" y="56.38" width="1.2" height="12.04" transform="translate(-40.03 30.95) rotate(-46.2)"/><rect class="cls-3" x="8.62" y="66.76" width="12.05" height="1.2" transform="translate(-8.83 2.55) rotate(-7.64)"/><rect class="cls-3" x="11.49" y="71.13" width="12.05" height="1.2" transform="translate(-53 49.82) rotate(-59.02)"/><path class="cls-1" d="M21,68.43a13.08,13.08,0,0,0,6.06,4.79c3.5,1.43,4.58-.25,4.75-2a4.94,4.94,0,0,1,.21-.95c.46-1.52,1.46-3.19.91-4.35-.68-1.4-1.72-2-2.54-1.51S24,66.16,22.66,65.66,21,68.43,21,68.43Z"/><path class="cls-3" d="M29.37,74.36a6.8,6.8,0,0,1-2.53-.58,13.9,13.9,0,0,1-6.33-5l-.12-.18,0-.22c.05-.42.32-2.55,1.34-3.18a1.25,1.25,0,0,1,1.13-.09c1.07.41,6.48-.74,7.21-1.19a1.77,1.77,0,0,1,1.44-.18,3.49,3.49,0,0,1,1.95,2c.52,1.1,0,2.38-.46,3.62-.15.39-.3.79-.42,1.17a4.65,4.65,0,0,0-.18.83A3.3,3.3,0,0,1,31,74,3.11,3.11,0,0,1,29.37,74.36Zm-7.73-6.08a12.63,12.63,0,0,0,5.66,4.38c1.35.56,2.41.65,3.05.26a2.19,2.19,0,0,0,.87-1.74,6.18,6.18,0,0,1,.23-1.06c.13-.41.29-.83.45-1.25.39-1,.79-2,.49-2.67a2.33,2.33,0,0,0-1.2-1.31.54.54,0,0,0-.48,0c-.91.56-6.69,1.88-8.26,1.28C22.08,66.41,21.76,67.41,21.64,68.28Z"/><path class="cls-1" d="M22.32,67.43a13.26,13.26,0,0,0,7.52-1.75c3.31-1.85,2.67-3.73,1.42-5a4.63,4.63,0,0,1-.61-.75c-.9-1.31-1.58-3.14-2.83-3.43-1.52-.34-2.64.08-2.77,1s-2.66,6.11-3.86,6.81S22.32,67.43,22.32,67.43Z"/><path class="cls-3" d="M23.25,68.07c-.37,0-.7,0-1,0l-.22,0-.15-.16c-.3-.29-1.8-1.84-1.65-3a1.29,1.29,0,0,1,.63-.95c1-.57,3.47-5.53,3.58-6.37a1.76,1.76,0,0,1,.75-1.24A3.46,3.46,0,0,1,28,56c1.18.27,1.88,1.46,2.55,2.61.21.36.42.73.65,1.06a4.46,4.46,0,0,0,.53.66,3.29,3.29,0,0,1,1.17,2.78c-.15,1.15-1.06,2.2-2.72,3.12A14,14,0,0,1,23.25,68.07Zm-.65-1.23a12.68,12.68,0,0,0,7-1.69c1.28-.71,2-1.48,2.11-2.23a2.23,2.23,0,0,0-.82-1.76,5.74,5.74,0,0,1-.69-.84c-.24-.36-.47-.74-.69-1.13-.54-.93-1.1-1.89-1.78-2a2.42,2.42,0,0,0-1.78.12.53.53,0,0,0-.25.4c-.14,1.07-2.71,6.42-4.16,7.26C21.41,65.33,22,66.2,22.6,66.84Z"/><path class="cls-1" d="M22.35,65.77a13.1,13.1,0,0,0,3.32-7c.62-3.73-1.25-4.41-3-4.19a6.24,6.24,0,0,1-1,0c-1.59-.12-3.44-.72-4.44.08-1.22,1-1.59,2.11-.92,2.8s3.12,5.89,2.92,7.27S22.35,65.77,22.35,65.77Z"/><path class="cls-3" d="M21.42,66.42A3.55,3.55,0,0,1,19,65.77a1.25,1.25,0,0,1-.34-1.08c.16-1.13-2.17-6.16-2.76-6.77a1.75,1.75,0,0,1-.5-1.36,3.47,3.47,0,0,1,1.47-2.33c1-.76,2.31-.56,3.63-.37.42.07.83.13,1.23.16a4.68,4.68,0,0,0,.85,0,3.3,3.3,0,0,1,2.91.82c.8.84,1.06,2.21.75,4.07a13.74,13.74,0,0,1-3.48,7.28l-.15.16-.22,0A8.77,8.77,0,0,1,21.42,66.42ZM18.75,54.89a1.75,1.75,0,0,0-1.1.28,2.39,2.39,0,0,0-1,1.47.54.54,0,0,0,.16.44c.75.77,3.33,6.12,3.09,7.78.26.32,1.31.41,2.19.33a12.66,12.66,0,0,0,3-6.49c.24-1.45.09-2.5-.43-3a2.26,2.26,0,0,0-1.89-.46,5.4,5.4,0,0,1-1.08,0c-.43,0-.88-.1-1.32-.16A10.64,10.64,0,0,0,18.75,54.89Z"/><path class="cls-1" d="M21.08,64.71a13.3,13.3,0,0,0-3.38-6.94C15.16,55,13.46,56,12.56,57.49a5.18,5.18,0,0,1-.6.77c-1.08,1.17-2.7,2.23-2.71,3.52,0,1.56.67,2.56,1.63,2.46s6.55,1.24,7.5,2.25S21.08,64.71,21.08,64.71Z"/><path class="cls-3" d="M18.87,67.32a1.27,1.27,0,0,1-.92-.41c-.79-.84-6.19-2.15-7-2.07a1.72,1.72,0,0,1-1.38-.46,3.44,3.44,0,0,1-.91-2.6c0-1.21,1-2.15,2-3.06.31-.29.62-.58.89-.87a4.24,4.24,0,0,0,.52-.67,3.31,3.31,0,0,1,2.46-1.76c1.15-.11,2.38.55,3.65,1.95a13.76,13.76,0,0,1,3.52,7.26l0,.22-.11.18c-.22.36-1.4,2.16-2.59,2.28ZM11,63.64c1.35,0,6.76,1.27,7.86,2.44.41,0,1.14-.77,1.63-1.5a12.65,12.65,0,0,0-3.2-6.4c-1-1.09-1.88-1.63-2.64-1.56a2.21,2.21,0,0,0-1.54,1.19,5.07,5.07,0,0,1-.67.86c-.29.31-.62.62-.94.93-.79.73-1.6,1.49-1.6,2.18a2.4,2.4,0,0,0,.51,1.71.58.58,0,0,0,.45.16Z"/><path class="cls-1" d="M19.46,65.05a13.21,13.21,0,0,0-7.54-1.68c-3.78.23-4,2.21-3.42,3.85a5.88,5.88,0,0,1,.23.94c.24,1.57.06,3.51,1.06,4.31,1.22,1,2.42,1.07,2.94.27s5.05-4.36,6.44-4.47S19.46,65.05,19.46,65.05Z"/><path class="cls-3" d="M11.68,73.88a3.77,3.77,0,0,1-2.26-.94c-.95-.76-1.06-2.13-1.16-3.46,0-.42-.07-.84-.13-1.23a4.6,4.6,0,0,0-.2-.83,3.32,3.32,0,0,1,.15-3c.64-1,1.92-1.53,3.81-1.64a13.66,13.66,0,0,1,7.87,1.77l.19.11.07.2c.15.4.82,2.44.17,3.44a1.25,1.25,0,0,1-1,.58c-1.14.09-5.52,3.48-6,4.2a1.75,1.75,0,0,1-1.22.78A2,2,0,0,1,11.68,73.88Zm1.16-9.94L12,64c-1.47.09-2.46.47-2.87,1.1a2.24,2.24,0,0,0,0,1.94,5.3,5.3,0,0,1,.26,1.06c.06.42.1.87.14,1.32.08,1.07.17,2.18.71,2.61a2.36,2.36,0,0,0,1.66.66.54.54,0,0,0,.4-.25c.58-.9,5.22-4.6,6.89-4.74A3.44,3.44,0,0,0,19,65.46,12.5,12.5,0,0,0,12.84,63.94Z"/><path class="cls-1" d="M18.71,66.53a13.08,13.08,0,0,0-6,4.84c-2.18,3.1-.79,4.52.86,5.07a5.37,5.37,0,0,1,.88.41c1.38.8,2.78,2.15,4,1.86,1.52-.34,2.34-1.22,2-2.13s-.25-6.66.52-7.82S18.71,66.53,18.71,66.53Z"/><path class="cls-3" d="M18.12,79.35a5.72,5.72,0,0,1-2.93-1.3c-.35-.24-.7-.47-1-.67a3.68,3.68,0,0,0-.77-.36,3.3,3.3,0,0,1-2.26-2c-.36-1.1,0-2.44,1.09-4a13.85,13.85,0,0,1,6.3-5l.2-.08.21.07c.4.14,2.41.89,2.79,2a1.22,1.22,0,0,1-.16,1.12c-.63,1-.72,6.48-.45,7.29A1.76,1.76,0,0,1,21,77.84a3.52,3.52,0,0,1-2.34,1.46A2.63,2.63,0,0,1,18.12,79.35Zm.6-12.18a12.74,12.74,0,0,0-5.53,4.54c-.85,1.21-1.17,2.22-.94,2.93a2.21,2.21,0,0,0,1.51,1.23,7,7,0,0,1,1,.46c.37.22.75.47,1.12.72.89.6,1.81,1.23,2.49,1.07a2.36,2.36,0,0,0,1.55-.88.52.52,0,0,0,.05-.47c-.34-1-.34-7,.6-8.34C20.45,68,19.54,67.49,18.72,67.17Z"/><path class="cls-1" d="M19.4,68a13.12,13.12,0,0,0,0,7.72c1.06,3.63,3,3.43,4.51,2.48a4.32,4.32,0,0,1,.86-.43c1.48-.59,3.41-.84,4-2,.68-1.41.51-2.59-.39-2.93S23,68.93,22.6,67.6,19.4,68,19.4,68Z"/><path class="cls-3" d="M22.22,79.43a2.58,2.58,0,0,1-.92-.16c-1.09-.41-1.91-1.53-2.44-3.35a13.76,13.76,0,0,1,0-8.07l.07-.2.18-.12c.36-.23,2.2-1.34,3.32-.93a1.24,1.24,0,0,1,.77.82c.35,1.09,4.63,4.61,5.43,4.9a1.78,1.78,0,0,1,1,1,3.49,3.49,0,0,1-.32,2.74c-.52,1.09-1.84,1.5-3.11,1.9-.4.13-.8.25-1.17.4a3.94,3.94,0,0,0-.77.38A3.84,3.84,0,0,1,22.22,79.43Zm-2.31-11a12.77,12.77,0,0,0,.1,7.16c.42,1.41,1,2.29,1.71,2.55a2.2,2.2,0,0,0,1.9-.41,5.48,5.48,0,0,1,1-.48c.4-.16.83-.29,1.26-.43,1-.32,2.09-.65,2.39-1.27a2.42,2.42,0,0,0,.28-1.77.58.58,0,0,0-.34-.33c-1-.37-5.65-4.07-6.15-5.67C21.66,67.61,20.67,68,19.91,68.43Z"/><path class="cls-1" d="M21.18,67.47c-.12.53-.17,1-.17,1a13.08,13.08,0,0,0,6.06,4.79c3.5,1.43,4.58-.25,4.75-2a4.94,4.94,0,0,1,.21-.95"/><path class="cls-3" d="M29.37,74.36a6.8,6.8,0,0,1-2.53-.58,13.9,13.9,0,0,1-6.33-5l-.12-.18,0-.22a8.72,8.72,0,0,1,.18-1l1.18.27a5.3,5.3,0,0,0-.13.69,12.63,12.63,0,0,0,5.66,4.37c1.35.56,2.41.65,3.05.26a2.19,2.19,0,0,0,.87-1.74,6.18,6.18,0,0,1,.23-1.06l1.15.35a4.65,4.65,0,0,0-.18.83A3.3,3.3,0,0,1,31,74,3.11,3.11,0,0,1,29.37,74.36Z"/><circle class="cls-5" cx="20.62" cy="66.57" r="3.62"/><path class="cls-3" d="M20.62,70.79a4.23,4.23,0,0,1-3.84-6,4.21,4.21,0,0,1,5.59-2.08,4.22,4.22,0,0,1,2.09,5.59,4.25,4.25,0,0,1-3.84,2.47Zm0-7.24a3,3,0,0,0-1.05.19,3,3,0,1,0,1.05-.19Z"/><path class="cls-3" d="M32.28,47.33h-.15a3.51,3.51,0,0,1-2.23-6.09,3.41,3.41,0,0,1,2.52-.92A3.51,3.51,0,0,1,35.78,44h0a3.52,3.52,0,0,1-3.5,3.36Zm0-5.81a2.26,2.26,0,0,0-1.55.6,2.3,2.3,0,0,0-.14,3.26,2.27,2.27,0,0,0,1.6.74,2.37,2.37,0,0,0,1.66-.6,2.31,2.31,0,0,0-1.47-4Z"/><rect class="cls-3" x="25.94" y="49.3" width="12.16" height="1.2" transform="translate(-19.16 79.84) rotate(-87.63)"/><rect class="cls-3" x="36.27" y="41.73" width="1.2" height="12.17" transform="translate(-23.4 44.34) rotate(-49.06)"/><rect class="cls-3" x="32.18" y="42.12" width="12.17" height="1.2" transform="translate(-7.13 7.68) rotate(-10.48)"/><rect class="cls-3" x="29.06" y="37.86" width="12.16" height="1.2" transform="translate(-15.34 51.34) rotate(-61.89)"/><rect class="cls-3" x="29.27" y="32.16" width="1.2" height="12.16" transform="translate(-12.71 14.96) rotate(-23.34)"/><rect class="cls-3" x="25.81" y="36.14" width="1.2" height="12.17" transform="translate(-21.27 56.61) rotate(-74.76)"/><rect class="cls-3" x="21.28" y="46.81" width="12.16" height="1.2" transform="translate(-22.72 25.32) rotate(-36.2)"/><path class="cls-1" d="M31.91,45.72a13.25,13.25,0,0,0,3.76,6.82c2.7,2.71,4.36,1.57,5.2,0a5.12,5.12,0,0,1,.56-.81c1-1.23,2.62-2.39,2.55-3.69-.08-1.57-.8-2.54-1.76-2.4s-6.67-.91-7.68-1.89S31.91,45.72,31.91,45.72Z"/><path class="cls-3" d="M38.63,54.78A5.08,5.08,0,0,1,35.24,53a13.91,13.91,0,0,1-3.92-7.14l0-.22.1-.19c.21-.37,1.3-2.24,2.49-2.42a1.25,1.25,0,0,1,1.08.35c.83.8,6.33,1.85,7.18,1.73a1.76,1.76,0,0,1,1.41.39,3.49,3.49,0,0,1,1,2.58c.06,1.22-.9,2.21-1.84,3.18-.29.31-.59.61-.85.92a3.94,3.94,0,0,0-.49.7A3.31,3.31,0,0,1,39,54.75,2.56,2.56,0,0,1,38.63,54.78Zm-6.09-9a12.78,12.78,0,0,0,3.56,6.3c1,1.05,2,1.55,2.75,1.44a2.26,2.26,0,0,0,1.49-1.28,5.33,5.33,0,0,1,.63-.9c.28-.33.59-.66.91-1,.75-.78,1.54-1.59,1.5-2.29a2.44,2.44,0,0,0-.61-1.7.53.53,0,0,0-.46-.13c-1.06.16-7-.88-8.19-2.05C33.7,44.24,33,45.05,32.54,45.82Z"/><path class="cls-1" d="M33.53,45.29a13.27,13.27,0,0,0,7.68,1.33c3.8-.42,3.94-2.43,3.26-4a5.41,5.41,0,0,1-.28-.94c-.32-1.58-.23-3.54-1.29-4.3-1.28-.92-2.49-1-3-.12S35.05,41.85,33.66,42,33.53,45.29,33.53,45.29Z"/><path class="cls-3" d="M39.56,47.31a13.7,13.7,0,0,1-6.32-1.48l-.19-.11-.08-.2c-.16-.39-.95-2.42-.35-3.46a1.26,1.26,0,0,1,1-.62c1.14-.15,5.39-3.79,5.83-4.53a1.76,1.76,0,0,1,1.18-.86,3.54,3.54,0,0,1,2.67.79c1,.72,1.16,2.1,1.33,3.43.06.42.11.84.19,1.24a4.83,4.83,0,0,0,.24.82,3.33,3.33,0,0,1,0,3.05c-.59,1-1.85,1.62-3.75,1.83A14.61,14.61,0,0,1,39.56,47.31ZM34,44.86A12.83,12.83,0,0,0,41.14,46c1.48-.17,2.46-.6,2.84-1.25a2.23,2.23,0,0,0-.07-2,6.65,6.65,0,0,1-.31-1c-.08-.43-.14-.88-.2-1.33-.14-1.07-.28-2.19-.85-2.6a2.45,2.45,0,0,0-1.71-.59.59.59,0,0,0-.4.28c-.54.93-5,4.9-6.71,5.12A3.43,3.43,0,0,0,34,44.86Z"/><path class="cls-1" d="M34.2,43.76A13.22,13.22,0,0,0,40,38.58c2-3.23.56-4.6-1.14-5.07a6.11,6.11,0,0,1-.9-.37c-1.43-.73-2.92-2-4.17-1.67-1.51.42-2.3,1.35-1.95,2.25s.59,6.7-.13,7.91S34.2,43.76,34.2,43.76Z"/><path class="cls-3" d="M34.25,44.4,34,44.34c-.41-.12-2.48-.77-2.92-1.88a1.25,1.25,0,0,1,.1-1.14c.6-1,.4-6.58.09-7.38a1.77,1.77,0,0,1,.07-1.46,3.51,3.51,0,0,1,2.28-1.59c1.18-.33,2.37.39,3.52,1.09.36.22.72.44,1.08.62a4.87,4.87,0,0,0,.8.33,3.33,3.33,0,0,1,2.38,1.9c.42,1.09.11,2.46-.91,4.07a14,14,0,0,1-6.09,5.42Zm0-12.39a.8.8,0,0,0-.27,0,2.41,2.41,0,0,0-1.53,1,.58.58,0,0,0,0,.48c.39,1,.7,7-.18,8.44.12.41,1.07.9,1.91,1.18a12.78,12.78,0,0,0,5.36-4.86c.79-1.26,1.06-2.29.79-3a2.23,2.23,0,0,0-1.58-1.17,6.15,6.15,0,0,1-1-.42c-.38-.19-.77-.43-1.16-.66A5.42,5.42,0,0,0,34.26,32Z"/><path class="cls-1" d="M33.43,42.28A13.31,13.31,0,0,0,33,34.5c-1.26-3.61-3.25-3.31-4.68-2.28a5,5,0,0,1-.85.48c-1.46.66-3.39,1-3.9,2.21-.61,1.46-.38,2.64.54,2.93s5.61,3.72,6.11,5S33.43,42.28,33.43,42.28Z"/><path class="cls-3" d="M30.94,43.94a1.76,1.76,0,0,1-.46-.06,1.24,1.24,0,0,1-.82-.79c-.4-1.08-4.9-4.42-5.72-4.67a1.77,1.77,0,0,1-1.09-1A3.46,3.46,0,0,1,23,34.68c.47-1.13,1.78-1.61,3-2.07.39-.15.79-.29,1.16-.46a4.18,4.18,0,0,0,.75-.42,3.31,3.31,0,0,1,3-.67c1.12.35,2,1.44,2.63,3.24A14,14,0,0,1,34,42.44l0,.21-.18.12A6.08,6.08,0,0,1,30.94,43.94Zm-.78-11.8a2.69,2.69,0,0,0-1.48.57,4.87,4.87,0,0,1-.95.53c-.4.18-.82.34-1.25.5-1,.37-2.07.76-2.35,1.41a2.49,2.49,0,0,0-.19,1.8.57.57,0,0,0,.36.32c1,.32,5.9,3.81,6.49,5.4.39.16,1.37-.27,2.11-.76a12.73,12.73,0,0,0-.46-7.21c-.49-1.41-1.13-2.27-1.85-2.5A1.59,1.59,0,0,0,30.16,32.14Z"/><path class="cls-1" d="M31.79,42a13.31,13.31,0,0,0-6.35-4.52c-3.61-1.27-4.61.48-4.7,2.23a4.87,4.87,0,0,1-.15,1c-.4,1.56-1.32,3.29-.7,4.43.75,1.39,1.82,2,2.63,1.4s6.4-2.07,7.74-1.63S31.79,42,31.79,42Z"/><path class="cls-3" d="M21.86,47.28a2.28,2.28,0,0,1-.44-.05,3.5,3.5,0,0,1-2.06-1.87c-.59-1.08-.15-2.39.28-3.67.13-.4.26-.81.36-1.2a3.74,3.74,0,0,0,.14-.85,3.33,3.33,0,0,1,1.32-2.74c1-.65,2.38-.66,4.18,0a14,14,0,0,1,6.63,4.73l.13.18V42c0,.43-.2,2.59-1.19,3.27a1.26,1.26,0,0,1-1.13.15c-1.09-.35-6.5,1.08-7.22,1.56A1.68,1.68,0,0,1,21.86,47.28Zm1.42-9.67a2,2,0,0,0-1.14.29,2.27,2.27,0,0,0-.8,1.8,5.39,5.39,0,0,1-.17,1.09c-.11.42-.25.85-.39,1.28-.34,1-.7,2.1-.36,2.71a2.41,2.41,0,0,0,1.28,1.28.58.58,0,0,0,.48-.09c.89-.6,6.66-2.23,8.27-1.7.37-.21.64-1.24.72-2.13A12.7,12.7,0,0,0,25.24,38,5.93,5.93,0,0,0,23.28,37.61Z"/><path class="cls-1" d="M30.52,43A13.31,13.31,0,0,0,23,45.19c-3.24,2-2.5,3.9-1.18,5.06a4.22,4.22,0,0,1,.65.73c1,1.27,1.75,3.08,3,3.31,1.55.27,2.66-.22,2.74-1.19s2.37-6.29,3.55-7.07S30.52,43,30.52,43Z"/><path class="cls-3" d="M26.34,55a5,5,0,0,1-.92-.08c-1.21-.22-2-1.38-2.7-2.51-.23-.35-.46-.71-.7-1a4.79,4.79,0,0,0-.58-.64A3.33,3.33,0,0,1,20.12,48c.1-1.17,1-2.27,2.58-3.29a14,14,0,0,1,7.84-2.23h.22l.16.14c.32.29,1.9,1.77,1.81,3a1.23,1.23,0,0,1-.59,1c-1,.63-3.21,5.75-3.28,6.61a1.73,1.73,0,0,1-.7,1.28A2.94,2.94,0,0,1,26.34,55Zm3.79-11.32a12.85,12.85,0,0,0-6.79,2.06c-1.26.78-2,1.6-2,2.36a2.26,2.26,0,0,0,.92,1.74,5.43,5.43,0,0,1,.73.81c.27.34.51.73.76,1.11.6.91,1.21,1.85,1.9,2a2.41,2.41,0,0,0,1.79-.21.57.57,0,0,0,.24-.42c.08-1.08,2.41-6.6,3.82-7.53.07-.42-.56-1.27-1.21-1.89Z"/><path class="cls-1" d="M30.57,44.71a13.36,13.36,0,0,0-3,7.2c-.43,3.8,1.49,4.39,3.23,4.08a5.06,5.06,0,0,1,1-.06c1.61,0,3.5.56,4.48-.3,1.18-1.05,1.49-2.22.78-2.88S33.59,47,33.72,45.57,30.57,44.71,30.57,44.71Z"/><path class="cls-3" d="M34.5,56.72c-.49,0-1,0-1.49-.1s-.85-.08-1.25-.09a4.42,4.42,0,0,0-.86,0,3.33,3.33,0,0,1-3-.67c-.85-.81-1.17-2.17-1-4.07a14,14,0,0,1,3.14-7.52l.14-.16.22,0c.42-.07,2.57-.38,3.45.43a1.25,1.25,0,0,1,.39,1.07c-.1,1.15,2.5,6.1,3.13,6.69A1.78,1.78,0,0,1,38,53.66a3.5,3.5,0,0,1-1.37,2.42A3.14,3.14,0,0,1,34.5,56.72Zm-2.9-1.39h.19c.43,0,.88.05,1.33.1,1.09.1,2.2.21,2.73-.26a2.39,2.39,0,0,0,.95-1.53.53.53,0,0,0-.18-.45c-.79-.74-3.66-6-3.5-7.68a3.44,3.44,0,0,0-2.24-.23A12.86,12.86,0,0,0,28.17,52c-.17,1.47,0,2.53.59,3.05a2.29,2.29,0,0,0,1.93.37A5,5,0,0,1,31.6,55.33Z"/><path class="cls-1" d="M32.45,44.88a8,8,0,0,0-.54.84,13.25,13.25,0,0,0,3.76,6.82c2.7,2.71,4.36,1.57,5.2,0a5.12,5.12,0,0,1,.56-.81"/><path class="cls-3" d="M38.63,54.78A5.08,5.08,0,0,1,35.24,53a13.91,13.91,0,0,1-3.92-7.14l0-.22.1-.19s.24-.42.58-.89l1,.71c-.16.22-.3.44-.39.58a12.78,12.78,0,0,0,3.56,6.3c1,1.05,2,1.55,2.75,1.44a2.26,2.26,0,0,0,1.49-1.28,5.33,5.33,0,0,1,.63-.9l.92.77a3.94,3.94,0,0,0-.49.7A3.31,3.31,0,0,1,39,54.75,2.56,2.56,0,0,1,38.63,54.78Z"/><circle class="cls-5" cx="32.28" cy="43.82" r="3.65"/><path class="cls-3" d="M32.28,48.08H32.1A4.25,4.25,0,0,1,28,43.65a4.25,4.25,0,1,1,8.5.35l-.6,0,.6,0a4.27,4.27,0,0,1-4.25,4.08Zm0-7.31A3.06,3.06,0,0,0,30,45.89a3,3,0,0,0,2.12,1,3.07,3.07,0,0,0,2.19-.8,3,3,0,0,0,1-2.12h0a3,3,0,0,0-2.92-3.17Z"/><path class="cls-3" d="M85.15,70.38a8.05,8.05,0,0,1-2-.26,6.69,6.69,0,0,1-1.81-.78A4.53,4.53,0,0,1,80,68a3.82,3.82,0,0,1-.64-1.83H82.2a2.33,2.33,0,0,0,.55,1.07,2.69,2.69,0,0,0,1,.66,4,4,0,0,0,1.37.23A4.86,4.86,0,0,0,86.55,68a2.32,2.32,0,0,0,1-.58,1.33,1.33,0,0,0,.38-1,1.28,1.28,0,0,0-.3-.87A2.36,2.36,0,0,0,86.8,65a7.26,7.26,0,0,0-1.21-.34l-2.4-.49a4.55,4.55,0,0,1-2.51-1.26,4,4,0,0,1-.25-4.83,4.54,4.54,0,0,1,1.92-1.47,6.88,6.88,0,0,1,2.73-.52,7.19,7.19,0,0,1,3,.56A4.4,4.4,0,0,1,90,58.17a3.84,3.84,0,0,1,.66,2.14H87.82a2.2,2.2,0,0,0-.44-1.17,2.12,2.12,0,0,0-.94-.63,4.1,4.1,0,0,0-1.31-.19,3.53,3.53,0,0,0-1,.13,2.34,2.34,0,0,0-.78.35,1.75,1.75,0,0,0-.49.53,1.36,1.36,0,0,0-.17.69,1.28,1.28,0,0,0,.4,1,3.34,3.34,0,0,0,1.51.61l2.39.49a5.89,5.89,0,0,1,2,.75,3.51,3.51,0,0,1,1.63,2.36,6.47,6.47,0,0,1,.12,1.18,3.21,3.21,0,0,1-.7,2,4.82,4.82,0,0,1-2,1.42A7.65,7.65,0,0,1,85.15,70.38Z"/><path class="cls-3" d="M71.09,96a7.13,7.13,0,0,1-.55,2.93,4,4,0,0,1-1.78,1.9,8.19,8.19,0,0,1-6.51,0,3.93,3.93,0,0,1-1.76-1.93,7.48,7.48,0,0,1-.54-3V87.39h2.86v8.74a3,3,0,0,0,.75,2.28,2.73,2.73,0,0,0,2,.71,3.09,3.09,0,0,0,1.42-.31,2.27,2.27,0,0,0,1-1,3.68,3.68,0,0,0,.35-1.71V87.39h2.84Z"/><path class="cls-3" d="M110.45,96a7.13,7.13,0,0,1-.55,2.93,4,4,0,0,1-1.78,1.9,8.19,8.19,0,0,1-6.51,0,3.93,3.93,0,0,1-1.76-1.93,7.48,7.48,0,0,1-.54-3V87.39h2.86v8.74a3,3,0,0,0,.75,2.28,2.73,2.73,0,0,0,2,.71,3.06,3.06,0,0,0,1.42-.31,2.27,2.27,0,0,0,1-1,3.68,3.68,0,0,0,.35-1.71V87.39h2.84Z"/><path class="cls-3" d="M85,109.28a24.06,24.06,0,0,1-14-4.48.79.79,0,0,1-.19-1.12.81.81,0,0,1,1.12-.19,22.6,22.6,0,0,0,26.22,0,.8.8,0,0,1,.93,1.31A24.06,24.06,0,0,1,85,109.28Z"/><path class="cls-3" d="M108.42,84.13a.8.8,0,0,1-.8-.74,22.51,22.51,0,0,0-13.9-19.26.8.8,0,0,1,.62-1.48,24.11,24.11,0,0,1,14.88,20.62.8.8,0,0,1-.75.86Z"/><path class="cls-3" d="M61.66,84.14H61.6a.81.81,0,0,1-.74-.86A24.14,24.14,0,0,1,75.6,62.7l.14-.05a.8.8,0,0,1,.62,1.48l-.13.05A22.53,22.53,0,0,0,62.46,83.39.8.8,0,0,1,61.66,84.14Z"/><path class="cls-1" d="M85,135.3a50.41,50.41,0,0,1-14.72-2.19h0v22.74A48.6,48.6,0,0,0,85,165.08h0a48.6,48.6,0,0,0,14.72-9.23V133.11h0A50.41,50.41,0,0,1,85,135.3Z"/><path class="cls-6" d="M85,165.08h0a48.6,48.6,0,0,0,14.72-9.23H70.32A48.6,48.6,0,0,0,85,165.08Z"/><path class="cls-2" d="M92.66,156.57a10.4,10.4,0,0,0-3.78-.72H85.64v-1.23a4.26,4.26,0,0,0,3,.09,7.15,7.15,0,0,0,4-2.83,8,8,0,0,0-4.87-.18A4.49,4.49,0,0,0,85.64,153v-2.27a4.26,4.26,0,0,0,3,.09,7.15,7.15,0,0,0,4-2.83,7.94,7.94,0,0,0-4.87-.17,4.4,4.4,0,0,0-2.14,1.28v-2.27a4.31,4.31,0,0,0,3,.1,7.19,7.19,0,0,0,4-2.83,7.93,7.93,0,0,0-4.87-.18,4.41,4.41,0,0,0-2.14,1.29v-1.84h-1.2v1.84a4.41,4.41,0,0,0-2.14-1.29,7.93,7.93,0,0,0-4.87.18,7.19,7.19,0,0,0,4,2.83,4.31,4.31,0,0,0,3-.1v2.27a4.4,4.4,0,0,0-2.14-1.28,7.94,7.94,0,0,0-4.87.17,7.15,7.15,0,0,0,4,2.83,4.26,4.26,0,0,0,3-.09V153a4.49,4.49,0,0,0-2.14-1.29,8,8,0,0,0-4.87.18,7.15,7.15,0,0,0,4,2.83,4.26,4.26,0,0,0,3-.09v1.23H81.36a10.44,10.44,0,0,0-3.78.72l-.15.06A10.35,10.35,0,0,0,82.5,158h5.24a10.32,10.32,0,0,0,5.07-1.33Z"/><path class="cls-6" d="M85,136.39a5.34,5.34,0,0,0-2.45,4.51,3.92,3.92,0,0,0,1.5,3.07,1.39,1.39,0,0,0,1.9,0,3.92,3.92,0,0,0,1.5-3.07A5.34,5.34,0,0,0,85,136.39Z"/><path class="cls-3" d="M85,165.74l-.23-.1a49.23,49.23,0,0,1-14.92-9.36l-.17-.18V132.51l.78,0a50,50,0,0,0,29.08,0l.18,0h.6V156.1l-.17.18a49.23,49.23,0,0,1-14.92,9.36ZM70.92,155.6A49.36,49.36,0,0,0,85,164.43a49.43,49.43,0,0,0,14.12-8.83V133.91a51.24,51.24,0,0,1-28.24,0Z"/><polygon class="cls-3" points="132.67 137.75 129 142.91 129.69 139.61 132.67 137.75"/><polygon class="cls-3" points="121.7 131.54 119.94 133.87 121.44 134.37 121.7 131.54"/><path class="cls-3" d="M143.79,44.16l.76,2.61,1-.3S145.25,44.56,143.79,44.16Z"/><path class="cls-3" d="M125.29,27.64l-.09-.05,0,0,0,0a1,1,0,0,0-1.37-.36,1,1,0,0,0-.36,1.37,2.22,2.22,0,0,0,.87.85,1,1,0,0,0,1.37-.36A1,1,0,0,0,125.29,27.64Z"/><path class="cls-3" d="M133.11,26.71h-.2a1,1,0,0,0-1,1,1,1,0,0,0,1,1h.2a1,1,0,0,0,0-2Z"/><path class="cls-1" d="M50.81,63a4,4,0,0,1,1.23,1,2.12,2.12,0,0,1,.45,1.33A3.48,3.48,0,0,1,52,67.11a3.56,3.56,0,0,1-1.18,1.37,2.08,2.08,0,0,1-1.37.33,4.08,4.08,0,0,1-1.52-.51l-3.8-2.1.84-1.51,3.88,2.14a1.49,1.49,0,0,0,1.16.22,1.34,1.34,0,0,0,.74-.63,1.51,1.51,0,0,0,.18-.64,1.11,1.11,0,0,0-.19-.64,1.7,1.7,0,0,0-.66-.55l-3.88-2.14L47,60.94Z"/><path class="cls-1" d="M53.26,53.36l1.17-1.24,5.25,5-1,1.12L53,57.36l3.37,3.19-1.17,1.24-5.25-5,1.17-1.24,5.31.81Z"/><path class="cls-1" d="M58.24,49.13l1.39-1L63.81,54l-1.39,1Z"/><path class="cls-1" d="M69.31,43l.77,7.6-1.73.79-5.24-5.55,1.47-.67,3.8,4-.54-5.51Z"/><path class="cls-1" d="M75,48.85l-1.43-7.09,5-1,.27,1.4-3.36.68.29,1.44,2.87-.58L78.94,45l-2.88.59.3,1.48,3.41-.69.29,1.4Z"/><path class="cls-1" d="M89,47.71l-1.75-.05-1-2.67-1.24,0-.07,2.64-1.71,0,.2-7.23,3.17.09a3,3,0,0,1,1.45.33,1.81,1.81,0,0,1,.8.82A2.56,2.56,0,0,1,89,42.72a2.36,2.36,0,0,1-.19,1,1.8,1.8,0,0,1-.45.65,2.78,2.78,0,0,1-.62.44Zm-2.77-4a1,1,0,0,0,.78-.28,1,1,0,0,0,.31-.72A.9.9,0,0,0,87,42a.94.94,0,0,0-.7-.3l-1.28,0,0,2Z"/><path class="cls-1" d="M94.58,49a4.46,4.46,0,0,1-1-.41,3.62,3.62,0,0,1-.84-.65,2.48,2.48,0,0,1-.53-.86,2,2,0,0,1-.07-1l1.68.44a1,1,0,0,0,.12.55,1.22,1.22,0,0,0,.37.42,1.83,1.83,0,0,0,.6.27,2.18,2.18,0,0,0,.65.08,1.19,1.19,0,0,0,.53-.11.56.56,0,0,0,.29-.4.47.47,0,0,0-.06-.42,1.12,1.12,0,0,0-.37-.34,5.25,5.25,0,0,0-.53-.29l-1.09-.52a2.32,2.32,0,0,1-1.11-1,2,2,0,0,1-.14-1.48,1.91,1.91,0,0,1,.68-1.08,2.49,2.49,0,0,1,1.2-.49,4,4,0,0,1,1.48.11,3.89,3.89,0,0,1,1.49.69,2.31,2.31,0,0,1,.78,1,2.13,2.13,0,0,1,0,1.2l-1.64-.43a1,1,0,0,0-.06-.56.87.87,0,0,0-.35-.39,2,2,0,0,0-.58-.24,1.91,1.91,0,0,0-.49-.08,1.29,1.29,0,0,0-.38.07.63.63,0,0,0-.4.42.6.6,0,0,0,.06.49,1.55,1.55,0,0,0,.61.45l1.08.51a3.1,3.1,0,0,1,1,.67,2,2,0,0,1,.44.75,1.83,1.83,0,0,1,.09.72,4.48,4.48,0,0,1-.11.61,1.68,1.68,0,0,1-.64,1,2.7,2.7,0,0,1-1.23.46A4.13,4.13,0,0,1,94.58,49Z"/><path class="cls-1" d="M103.51,44.38l1.54.74-3.11,6.52-1.53-.73Z"/><path class="cls-1" d="M107.8,48.26l.87-1.22,4.82,3.44-.87,1.23-1.71-1.23-3.33,4.66-1.39-1,3.33-4.66Z"/><path class="cls-1" d="M110.47,57.35l7.07-3,1.19,1.3-3.6,6.78L114,61.2l.77-1.43L113.12,58l-1.5.63Zm4-.1,1.13,1.24,1.35-2.36Z"/><path class="cls-1" d="M117.89,67.15a4.65,4.65,0,0,1-.41-1,3.83,3.83,0,0,1-.11-1,2.5,2.5,0,0,1,.26-1,2,2,0,0,1,.7-.77l.84,1.52a1,1,0,0,0-.31.46,1.16,1.16,0,0,0,0,.56,1.78,1.78,0,0,0,.22.62,2.66,2.66,0,0,0,.38.53,1.14,1.14,0,0,0,.46.3.59.59,0,0,0,.48-.06.53.53,0,0,0,.27-.34,1.41,1.41,0,0,0,0-.5c0-.19-.1-.39-.16-.59l-.38-1.14a2.37,2.37,0,0,1-.07-1.48,2,2,0,0,1,1-1.12,1.89,1.89,0,0,1,1.25-.26,2.46,2.46,0,0,1,1.18.53,3.83,3.83,0,0,1,1,1.14,4,4,0,0,1,.53,1.56,2.3,2.3,0,0,1-.2,1.27,2.17,2.17,0,0,1-.83.87L123,65.72a.87.87,0,0,0,.41-1,1.94,1.94,0,0,0-.23-.58,1.73,1.73,0,0,0-.29-.41,1.24,1.24,0,0,0-.31-.23.66.66,0,0,0-.3-.07.69.69,0,0,0-.28.08.64.64,0,0,0-.31.38,1.62,1.62,0,0,0,.1.75l.38,1.13a3.11,3.11,0,0,1,.2,1.19,1.86,1.86,0,0,1-.69,1.39,3.76,3.76,0,0,1-.52.36,1.66,1.66,0,0,1-1.12.18,2.61,2.61,0,0,1-1.18-.56A4.3,4.3,0,0,1,117.89,67.15Z"/><path class="cls-1" d="M40.51,93.62a4,4,0,0,1-.06-1.09,3.16,3.16,0,0,1,.23-1,2.33,2.33,0,0,1,.56-.85,2.09,2.09,0,0,1,.9-.5l.32,1.71a1,1,0,0,0-.45.33,1.28,1.28,0,0,0-.22.52,2.1,2.1,0,0,0,0,.66A2.65,2.65,0,0,0,42,94a1.14,1.14,0,0,0,.33.43.58.58,0,0,0,.48.1.53.53,0,0,0,.36-.23,1.29,1.29,0,0,0,.15-.48,5.86,5.86,0,0,0,0-.61V92a2.26,2.26,0,0,1,.41-1.41,1.93,1.93,0,0,1,1.28-.75,1.86,1.86,0,0,1,1.26.15,2.42,2.42,0,0,1,1,.88,3.8,3.8,0,0,1,.53,1.39,4.11,4.11,0,0,1,0,1.64A2.33,2.33,0,0,1,47.2,95a2.06,2.06,0,0,1-1.06.56l-.31-1.67a1,1,0,0,0,.49-.29.93.93,0,0,0,.2-.48,1.94,1.94,0,0,0,0-.63,2.27,2.27,0,0,0-.15-.48,1,1,0,0,0-.22-.32.66.66,0,0,0-.26-.16.71.71,0,0,0-.29,0,.59.59,0,0,0-.41.27,1.49,1.49,0,0,0-.15.74v1.19a3.05,3.05,0,0,1-.19,1.19,1.93,1.93,0,0,1-.48.72,2.16,2.16,0,0,1-.62.38,4.69,4.69,0,0,1-.6.17A1.66,1.66,0,0,1,42,96a2.6,2.6,0,0,1-.93-.91A4.07,4.07,0,0,1,40.51,93.62Z"/><path class="cls-1" d="M47.41,105a4.06,4.06,0,0,1-1.56.35,2.13,2.13,0,0,1-1.33-.46,4.42,4.42,0,0,1-1.4-3.24,2.16,2.16,0,0,1,.58-1.29A4.07,4.07,0,0,1,45,99.44l4-1.72.68,1.59-4.06,1.75a1.51,1.51,0,0,0-.89.79,1.28,1.28,0,0,0,0,1,1.3,1.3,0,0,0,.4.54,1,1,0,0,0,.61.24,1.77,1.77,0,0,0,.84-.18l4.07-1.76.68,1.59Z"/><path class="cls-1" d="M47,110.13l5.68-4.47,1.56,2-2.89,4.06L56,109.86l1.54,2-5.68,4.47L50.83,115l4.23-3.33-5.2,2.09-.79-1,3.25-4.55-4.22,3.32Z"/><path class="cls-1" d="M54.85,119.13l6.43-4.19,1.4,1.07-2.33,7.31-1.35-1,.51-1.55-1.94-1.48-1.37.9Zm3.9-.81,1.34,1,.9-2.56Z"/><path class="cls-1" d="M65.06,119.48l.66-1.36,5.33,2.6-.66,1.35-1.89-.92L66,126.3l-1.53-.75L67,120.4Z"/><path class="cls-1" d="M71.5,128.49l1.77-7,5,1.26-.36,1.37-3.32-.84-.36,1.43,2.83.72-.34,1.35-2.84-.72-.37,1.46,3.37.86-.35,1.39Z"/><path class="cls-1" d="M86.57,130.52l-1.75-.05-1-2.67-1.24,0-.07,2.64-1.71-.05.21-7.23,3.17.1a3.11,3.11,0,0,1,1.45.33,1.83,1.83,0,0,1,.8.83,2.52,2.52,0,0,1,.23,1.15,2.87,2.87,0,0,1-.19,1,1.91,1.91,0,0,1-.46.64,2.49,2.49,0,0,1-.62.44Zm-2.76-4a1,1,0,0,0,.78-.28,1,1,0,0,0,.31-.72.9.9,0,0,0-.28-.72,1,1,0,0,0-.7-.31l-1.28,0-.06,2Z"/><path class="cls-1" d="M90.39,130.24l1.11-7.59,1.73-.34,3.94,6.58-1.66.34-.82-1.41-2.4.48-.23,1.61Zm2-3.45,1.65-.33-1.33-2.38Z"/><path class="cls-1" d="M108.81,120.3a4,4,0,0,1,.54,1.5,2.13,2.13,0,0,1-.3,1.38A4.4,4.4,0,0,1,106,125a2.07,2.07,0,0,1-1.34-.43,4,4,0,0,1-1.05-1.22l-2.18-3.74,1.5-.87,2.23,3.82a1.46,1.46,0,0,0,.88.79,1.42,1.42,0,0,0,1.44-.62,1,1,0,0,0,.16-.64,1.8,1.8,0,0,0-.27-.81l-2.23-3.83,1.49-.87Z"/><path class="cls-1" d="M109.45,116.29l-1-1.11,4.34-4,1,1.1-1.54,1.43,3.88,4.2-1.25,1.16-3.89-4.2Z"/><path class="cls-1" d="M119.42,114.58l-4.35-6.32,1-1.43,7.37,2.15-1,1.37-1.56-.47-1.43,2,.93,1.35Zm-.9-3.88,1-1.36-2.59-.85Z"/><path class="cls-1" d="M127.61,100.16l-.68,1.61h-2.87l-.48,1.15,2.43,1-.67,1.57-6.65-2.83,1.23-2.91a3.28,3.28,0,0,1,.84-1.24,1.94,1.94,0,0,1,1.06-.44,2.53,2.53,0,0,1,1.16.21,2.57,2.57,0,0,1,.82.52,1.86,1.86,0,0,1,.44.66,3.08,3.08,0,0,1,.18.74Zm-4.74,1.12a1,1,0,0,0,0-.83,1,1,0,0,0-.55-.56,1,1,0,0,0-.78,0,1,1,0,0,0-.54.55l-.49,1.17,1.87.79Z"/><path class="cls-1" d="M128.75,96.46l-6.69-3.76.3-1.74,7.57-1.31-.29,1.67-1.61.26L127.61,94l1.43.79Zm-2.52-3.09.29-1.65-2.69.38Z"/></g></g></svg>